<?xml version="1.0" encoding="utf-8"?>
<!-- Generator: Adobe Illustrator 24.0.2, SVG Export Plug-In . SVG Version: 6.00 Build 0)  -->
<svg version="1.1" id="Layer_1" xmlns="http://www.w3.org/2000/svg" xmlns:xlink="http://www.w3.org/1999/xlink" x="0px" y="0px"
	 viewBox="0 0 467 450" style="enable-background:new 0 0 467 450;" xml:space="preserve">
<style type="text/css">
	.st0{fill:#1E2E42;}
	.st1{enable-background:new    ;}
	.st2{clip-path:url(#SVGID_2_);}
	.st3{fill:#344A6F;}
	.st4{fill:#CCCCCC;}
	.st5{fill:#E8E8E8;}
	.st6{fill:#FFFFFF;}
	.st7{fill:#F41940;}
	.st8{fill:#F64766;}
	.st9{fill:#F8758C;}
</style>
<g>
	<polygon class="st0" points="22.8,391.4 68,431.6 68.6,74.4 	"/>
	<g>
		<g>
			<g class="st1">
				<defs>
					<polygon id="SVGID_1_" class="st1" points="68,431.6 68.6,74.4 444.1,21.6 443.5,378.8 					"/>
				</defs>
				<clipPath id="SVGID_2_">
					<use xlink:href="#SVGID_1_"  style="overflow:visible;"/>
				</clipPath>
				<g class="st2">
					<g>
						<g>
							<g>
								<path class="st3" d="M75.7,410.2L76.3,82l350.5-49.3l0,5.8l4.8-0.7l0,5.2l5-0.7L436,370.6L85.5,419.8l0-5.2l-5,0.7l0-5.8
									L75.7,410.2 M444.1,21.6L68.6,74.4L68,431.6l375.5-52.8L444.1,21.6"/>
								<polyline class="st4" points="426.8,32.7 76.3,82 75.7,410.2 80.5,409.5 81.1,87.1 426.8,38.5 426.8,32.7 								"/>
								<polyline class="st5" points="431.6,37.9 426.8,38.5 81.1,87.1 80.5,409.5 80.5,415.3 85.5,414.6 86.1,91.6 431.6,43.1 
									431.6,37.9 								"/>
								<path class="st6" d="M133.9,360l-41.5,5.8l-0.1,44.8l41.5-5.8L133.9,360 M183.5,353l-41.5,5.8l-0.1,44.8l41.5-5.8L183.5,353
									 M196.5,390.4l0.1-33.8l31.3-4.4l-0.1,33.8L196.5,390.4 M232.6,346.1l-41.5,5.8l-0.1,44.8l41.5-5.8L232.6,346.1
									 M281.8,339.2l-41.5,5.8l-0.1,44.8l41.5-5.8L281.8,339.2 M330.7,332.3l-41.5,5.8l-0.1,44.8l41.5-5.8L330.7,332.3
									 M348.6,368.6l1.8-12.4l-8.2-7.3l11.3-3.5l5-11.8l5.1,10.2l11.3,0.1l-8.1,9.8l2,11.8l-10.1-4.2L348.6,368.6 M379.6,325.4
									l-41.5,5.8L338,376l41.5-5.8L379.6,325.4 M428.6,318.5l-41.5,5.8l-0.1,44.8l41.5-5.8L428.6,318.5 M97.9,345l0-6.4l15.3-2.2
									l0,6.4L97.9,345 M97.9,334.4l0-6.4l23.4-3.3l0,6.4L97.9,334.4 M97.6,323.7l0-6.4l31.3-4.4l0,6.4L97.6,323.7 M134.3,306.9
									l-41.5,5.8l-0.1,44.8l41.5-5.8L134.3,306.9 M183.9,299.9l-41.5,5.8l-0.1,44.8l41.5-5.8L183.9,299.9 M233,293l-41.5,5.8
									l-0.1,44.8l41.5-5.8L233,293 M282.2,286.1l-41.5,5.8l-0.1,44.8l41.5-5.8L282.2,286.1 M294.6,323.6l0.1-33.8l31.3-4.4
									l-0.1,33.8L294.6,323.6 M331.1,279.2l-41.5,5.8l-0.1,44.8L331,324L331.1,279.2 M380,272.4l-41.5,5.8l-0.1,44.8l41.5-5.8
									L380,272.4 M429,265.5l-41.5,5.8l-0.1,44.8l41.5-5.8L429,265.5 M134.4,253.9L93,259.7l-0.1,44.8l41.5-5.8L134.4,253.9
									 M184,246.9l-41.5,5.8l-0.1,44.8l41.5-5.8L184,246.9 M202.1,283.5l1.8-12.4l-8.2-7.3l11.3-3.5l5-11.8l5.1,10.2l11.3,0.1
									l-8.1,9.8l2,11.8l-10.1-4.2L202.1,283.5 M233.1,240l-41.5,5.8l-0.1,44.8l41.5-5.8L233.1,240 M245.9,277.7l0.1-33.8l31.3-4.4
									l-0.1,33.8L245.9,277.7 M282.3,233.1l-41.5,5.8l-0.1,44.8l41.5-5.8L282.3,233.1 M331.2,226.2l-41.5,5.8l-0.1,44.8l41.5-5.8
									L331.2,226.2 M380.1,219.3l-41.5,5.8l-0.1,44.8l41.5-5.8L380.1,219.3 M429.1,212.4l-41.5,5.8l-0.1,44.8l41.5-5.8
									L429.1,212.4 M134.5,201.1l-41.5,5.8L93,251.7l41.5-5.8L134.5,201.1 M184.1,194.1l-41.5,5.8l-0.1,44.8l41.5-5.8L184.1,194.1
									 M233.2,187.2l-41.5,5.8l-0.1,44.8l41.5-5.8L233.2,187.2 M282.4,180.3l-41.5,5.8l-0.1,44.8l41.5-5.8L282.4,180.3
									 M331.3,173.4l-41.5,5.8l-0.1,44.8l41.5-5.8L331.3,173.4 M343.8,210.9l0.1-33.8l31.3-4.4l-0.1,33.8L343.8,210.9
									 M380.2,166.5l-41.5,5.8l-0.1,44.8l41.5-5.8L380.2,166.5 M429.2,159.7l-41.5,5.8l-0.1,44.8l41.5-5.8L429.2,159.7
									 M134.5,147.2L93,153.1l-0.1,44.8l41.5-5.8L134.5,147.2 M147.6,184.6l0.1-33.8l31.3-4.4l-0.1,33.8L147.6,184.6 M184,140.3
									l-41.5,5.8l-0.1,44.8l41.5-5.8L184,140.3 M233.2,133.4l-41.5,5.8l-0.1,44.8l41.5-5.8L233.2,133.4 M282.3,126.5l-41.5,5.8
									l-0.1,44.8l41.5-5.8L282.3,126.5 M331.2,119.6l-41.5,5.8l-0.1,44.8l41.5-5.8L331.2,119.6 M380.1,112.7l-41.5,5.8l-0.1,44.8
									l41.5-5.8L380.1,112.7 M393.2,143.8l0-6.4l15.3-2.2l0,6.4L393.2,143.8 M393.2,133.2l0-6.4l23.4-3.3l0,6.4L393.2,133.2
									 M392.9,122.5l0-6.4l31.3-4.4l0,6.4L392.9,122.5 M429.1,105.8l-41.5,5.8l-0.1,44.8l41.5-5.8L429.1,105.8 M90.6,412.7
									l0.1-48.6l45-6.3l-0.1,48.6L90.6,412.7 M140.2,405.8l0.1-48.6l45-6.3l-0.1,48.6L140.2,405.8 M189.3,398.8l0.1-48.6l45-6.3
									l-0.1,48.6L189.3,398.8 M238.5,391.9l0.1-48.6l45-6.3l-0.1,48.6L238.5,391.9 M287.3,385.1l0.1-48.6l45-6.3l-0.1,48.6
									L287.3,385.1 M336.2,378.2l0.1-48.6l45-6.3l-0.1,48.6L336.2,378.2 M385.3,371.3l0.1-48.6l45-6.3l-0.1,48.6L385.3,371.3
									 M91,359.6l0.1-48.6l45-6.3l-0.1,48.6L91,359.6 M140.6,352.7l0.1-48.6l45-6.3l-0.1,48.6L140.6,352.7 M189.7,345.8l0.1-48.6
									l45-6.3l-0.1,48.6L189.7,345.8 M238.9,338.9l0.1-48.6l45-6.3l-0.1,48.6L238.9,338.9 M287.8,332l0.1-48.6l45-6.3l-0.1,48.6
									L287.8,332 M336.6,325.1l0.1-48.6l45-6.3l-0.1,48.6L336.6,325.1 M385.7,318.2l0.1-48.6l45-6.3l-0.1,48.6L385.7,318.2
									 M91.1,306.6l0.1-48.6l45-6.3l-0.1,48.6L91.1,306.6 M140.7,299.6l0.1-48.6l45-6.3l-0.1,48.6L140.7,299.6 M189.8,292.7
									l0.1-48.6l45-6.3l-0.1,48.6L189.8,292.7 M239,285.8l0.1-48.6l45-6.3l-0.1,48.6L239,285.8 M287.8,279l0.1-48.6l45-6.3
									l-0.1,48.6L287.8,279 M336.7,272.1l0.1-48.6l45-6.3l-0.1,48.6L336.7,272.1 M385.8,265.2l0.1-48.6l45-6.3l-0.1,48.6
									L385.8,265.2 M91.2,253.8l0.1-48.6l45-6.3l-0.1,48.6L91.2,253.8 M140.8,246.9l0.1-48.6l45-6.3l-0.1,48.6L140.8,246.9
									 M189.9,239.9l0.1-48.6l45-6.3l-0.1,48.6L189.9,239.9 M239.1,233l0.1-48.6l45-6.3l-0.1,48.6L239.1,233 M287.9,226.2
									l0.1-48.6l45-6.3l-0.1,48.6L287.9,226.2 M336.8,219.3l0.1-48.6l45-6.3l-0.1,48.6L336.8,219.3 M385.9,212.4l0.1-48.6l45-6.3
									l-0.1,48.6L385.9,212.4 M91.1,200l0.1-48.6l45-6.3l-0.1,48.6L91.1,200 M140.7,193l0.1-48.6l45-6.3l-0.1,48.6L140.7,193
									 M189.8,186.1l0.1-48.6l45-6.3l-0.1,48.6L189.8,186.1 M239,179.2l0.1-48.6l45-6.3l-0.1,48.6L239,179.2 M287.9,172.3
									l0.1-48.6l45-6.3l-0.1,48.6L287.9,172.3 M336.8,165.5l0.1-48.6l45-6.3l-0.1,48.6L336.8,165.5 M385.8,158.6l0.1-48.6l45-6.3
									l-0.1,48.6L385.8,158.6 M98.3,143.8l0-6.4l31.3-4.4l0,6.4L98.3,143.8 M147.4,136.9l0-6.4l31.3-4.4l0,6.4L147.4,136.9
									 M197,130l0-6.4l31.3-4.4l0,6.4L197,130 M246.1,123l0-6.4l31.3-4.4l0,6.4L246.1,123 M294.9,116.2l0-6.4l31.3-4.4l0,6.4
									L294.9,116.2 M343.3,109.4l0-6.4l31.3-4.4l0,6.4L343.3,109.4 M392.6,102.5l0-6.4l31.3-4.4l0,6.4L392.6,102.5 M225.9,101.6
									l0-12.8l71.9-10.1l0,12.8L225.9,101.6 M381.2,73.3c-3.2,0.5-5.8-2-5.8-5.5c0-3.5,2.6-6.7,5.9-7.1s5.8,2,5.8,5.5
									C387.1,69.6,384.5,72.8,381.2,73.3 M141.6,107c-3.2,0.5-5.8-2-5.8-5.5c0-3.5,2.6-6.7,5.9-7.1c3.2-0.5,5.8,2,5.8,5.5
									C147.5,103.3,144.8,106.5,141.6,107 M436.6,42.4l-5,0.7L86.1,91.6l-0.6,323l0,5.2L436,370.6L436.6,42.4"/>
								<path class="st3" d="M92.9,197.8l0.1-44.8l41.5-5.8l-0.1,44.8L92.9,197.8 M136.2,145.1l-45,6.3L91.1,200l45-6.3L136.2,145.1
									"/>
								<path class="st3" d="M142.5,190.9l0.1-44.8l41.5-5.8l-0.1,44.8L142.5,190.9 M185.8,138.1l-45,6.3l-0.1,48.6l45-6.3
									L185.8,138.1"/>
								<path class="st3" d="M191.6,183.9l0.1-44.8l41.5-5.8l-0.1,44.8L191.6,183.9 M235,131.2l-45,6.3l-0.1,48.6l45-6.3L235,131.2"
									/>
								<path class="st3" d="M240.8,177l0.1-44.8l41.5-5.8l-0.1,44.8L240.8,177 M284.1,124.3l-45,6.3l-0.1,48.6l45-6.3L284.1,124.3"
									/>
								<path class="st3" d="M289.7,170.2l0.1-44.8l41.5-5.8l-0.1,44.8L289.7,170.2 M333,117.4l-45,6.3l-0.1,48.6l45-6.3L333,117.4"
									/>
								<path class="st3" d="M338.5,163.3l0.1-44.8l41.5-5.8l-0.1,44.8L338.5,163.3 M381.9,110.6l-45,6.3l-0.1,48.6l45-6.3
									L381.9,110.6"/>
								<path class="st3" d="M387.6,156.4l0.1-44.8l41.5-5.8l-0.1,44.8L387.6,156.4 M430.9,103.7l-45,6.3l-0.1,48.6l45-6.3
									L430.9,103.7"/>
								<path class="st3" d="M93,251.7l0.1-44.8l41.5-5.8l-0.1,44.8L93,251.7 M136.3,198.9l-45,6.3l-0.1,48.6l45-6.3L136.3,198.9"/>
								<path class="st3" d="M142.5,244.7l0.1-44.8l41.5-5.8l-0.1,44.8L142.5,244.7 M185.9,191.9l-45,6.3l-0.1,48.6l45-6.3
									L185.9,191.9"/>
								<path class="st3" d="M191.7,237.8l0.1-44.8l41.5-5.8l-0.1,44.8L191.7,237.8 M235,185l-45,6.3l-0.1,48.6l45-6.3L235,185"/>
								<path class="st3" d="M240.8,230.9l0.1-44.8l41.5-5.8l-0.1,44.8L240.8,230.9 M284.2,178.1l-45,6.3l-0.1,48.6l45-6.3
									L284.2,178.1"/>
								<path class="st3" d="M289.7,224l0.1-44.8l41.5-5.8l-0.1,44.8L289.7,224 M333.1,171.2l-45,6.3l-0.1,48.6l45-6.3L333.1,171.2"
									/>
								<path class="st3" d="M338.6,217.1l0.1-44.8l41.5-5.8l-0.1,44.8L338.6,217.1 M382,164.4l-45,6.3l-0.1,48.6l45-6.3L382,164.4"
									/>
								<path class="st3" d="M387.6,210.2l0.1-44.8l41.5-5.8l-0.1,44.8L387.6,210.2 M431,157.5l-45,6.3l-0.1,48.6l45-6.3L431,157.5"
									/>
								<path class="st3" d="M92.9,304.4l0.1-44.8l41.5-5.8l-0.1,44.8L92.9,304.4 M136.2,251.7l-45,6.3l-0.1,48.6l45-6.3
									L136.2,251.7"/>
								<path class="st3" d="M142.4,297.5l0.1-44.8l41.5-5.8l-0.1,44.8L142.4,297.5 M185.8,244.7l-45,6.3l-0.1,48.6l45-6.3
									L185.8,244.7"/>
								<path class="st3" d="M191.6,290.6l0.1-44.8l41.5-5.8l-0.1,44.8L191.6,290.6 M234.9,237.8l-45,6.3l-0.1,48.6l45-6.3
									L234.9,237.8"/>
								<path class="st3" d="M240.8,283.7l0.1-44.8l41.5-5.8l-0.1,44.8L240.8,283.7 M284.1,230.9l-45,6.3l-0.1,48.6l45-6.3
									L284.1,230.9"/>
								<path class="st3" d="M289.6,276.8l0.1-44.8l41.5-5.8l-0.1,44.8L289.6,276.8 M333,224l-45,6.3l-0.1,48.6l45-6.3L333,224"/>
								<path class="st3" d="M338.5,269.9l0.1-44.8l41.5-5.8l-0.1,44.8L338.5,269.9 M381.9,217.2l-45,6.3l-0.1,48.6l45-6.3
									L381.9,217.2"/>
								<path class="st3" d="M387.5,263l0.1-44.8l41.5-5.8l-0.1,44.8L387.5,263 M430.9,210.3l-45,6.3l-0.1,48.6l45-6.3L430.9,210.3"
									/>
								<path class="st3" d="M92.8,357.5l0.1-44.8l41.5-5.8l-0.1,44.8L92.8,357.5 M136.1,304.7l-45,6.3L91,359.6l45-6.3L136.1,304.7
									"/>
								<path class="st3" d="M142.3,350.5l0.1-44.8l41.5-5.8l-0.1,44.8L142.3,350.5 M185.7,297.7l-45,6.3l-0.1,48.6l45-6.3
									L185.7,297.7"/>
								<path class="st3" d="M191.5,343.6l0.1-44.8L233,293l-0.1,44.8L191.5,343.6 M234.8,290.8l-45,6.3l-0.1,48.6l45-6.3
									L234.8,290.8"/>
								<path class="st3" d="M240.7,336.7l0.1-44.8l41.5-5.8l-0.1,44.8L240.7,336.7 M284,283.9l-45,6.3l-0.1,48.6l45-6.3L284,283.9"
									/>
								<path class="st3" d="M289.5,329.8l0.1-44.8l41.5-5.8L331,324L289.5,329.8 M332.9,277.1l-45,6.3l-0.1,48.6l45-6.3
									L332.9,277.1"/>
								<path class="st3" d="M338.4,322.9l0.1-44.8l41.5-5.8l-0.1,44.8L338.4,322.9 M381.8,270.2l-45,6.3l-0.1,48.6l45-6.3
									L381.8,270.2"/>
								<path class="st3" d="M387.4,316.1l0.1-44.8l41.5-5.8l-0.1,44.8L387.4,316.1 M430.8,263.3l-45,6.3l-0.1,48.6l45-6.3
									L430.8,263.3"/>
								<path class="st3" d="M92.4,410.5l0.1-44.8l41.5-5.8l-0.1,44.8L92.4,410.5 M135.7,357.8l-45,6.3l-0.1,48.6l45-6.3
									L135.7,357.8"/>
								<path class="st3" d="M141.9,403.6l0.1-44.8l41.5-5.8l-0.1,44.8L141.9,403.6 M185.3,350.8l-45,6.3l-0.1,48.6l45-6.3
									L185.3,350.8"/>
								<path class="st3" d="M191.1,396.7l0.1-44.8l41.5-5.8l-0.1,44.8L191.1,396.7 M234.4,343.9l-45,6.3l-0.1,48.6l45-6.3
									L234.4,343.9"/>
								<path class="st3" d="M240.2,389.8l0.1-44.8l41.5-5.8l-0.1,44.8L240.2,389.8 M283.6,337l-45,6.3l-0.1,48.6l45-6.3L283.6,337"
									/>
								<path class="st3" d="M289.1,382.9l0.1-44.8l41.5-5.8l-0.1,44.8L289.1,382.9 M332.5,330.1l-45,6.3l-0.1,48.6l45-6.3
									L332.5,330.1"/>
								<path class="st3" d="M338,376l0.1-44.8l41.5-5.8l-0.1,44.8L338,376 M381.4,323.3l-45,6.3l-0.1,48.6l45-6.3L381.4,323.3"/>
								<path class="st3" d="M387,369.1l0.1-44.8l41.5-5.8l-0.1,44.8L387,369.1 M430.4,316.4l-45,6.3l-0.1,48.6l45-6.3L430.4,316.4"
									/>
								<polyline class="st3" points="178.9,146.5 147.6,150.9 147.6,184.6 178.8,180.2 178.9,146.5 								"/>
								<polyline class="st3" points="375.1,172.7 343.9,177.1 343.8,210.9 375.1,206.5 375.1,172.7 								"/>
								<polyline class="st3" points="277.2,239.6 245.9,244 245.9,277.7 277.1,273.3 277.2,239.6 								"/>
								<polyline class="st3" points="326,285.5 294.7,289.9 294.6,323.6 325.9,319.2 326,285.5 								"/>
								<polyline class="st3" points="227.8,352.3 196.6,356.7 196.5,390.4 227.8,386 227.8,352.3 								"/>
								<polyline class="st3" points="129.6,133.1 98.3,137.5 98.3,143.8 129.6,139.4 129.6,133.1 								"/>
								<polyline class="st3" points="178.6,126.2 147.4,130.6 147.4,136.9 178.6,132.5 178.6,126.2 								"/>
								<polyline class="st3" points="228.3,119.2 197,123.6 197,130 228.3,125.6 228.3,119.2 								"/>
								<polyline class="st3" points="277.4,112.3 246.2,116.7 246.1,123 277.4,118.7 277.4,112.3 								"/>
								<polyline class="st3" points="326.1,105.4 294.9,109.8 294.9,116.2 326.1,111.8 326.1,105.4 								"/>
								<polyline class="st3" points="374.6,98.6 343.3,103 343.3,109.4 374.6,105 374.6,98.6 								"/>
								<polyline class="st3" points="423.9,91.7 392.6,96.1 392.6,102.5 423.9,98.1 423.9,91.7 								"/>
								<polyline class="st7" points="212,248.5 207,260.3 195.8,263.8 204,271.1 202.1,283.5 212.2,276.3 222.3,280.4 220.3,268.6 
									228.4,258.8 217.1,258.8 212,248.5 								"/>
								<polyline class="st7" points="358.4,333.6 353.4,345.4 342.2,348.9 350.4,356.2 348.6,368.6 358.6,361.3 368.7,365.5 
									366.7,353.7 374.8,343.9 363.5,343.9 358.4,333.6 								"/>
								<polyline class="st7" points="128.9,312.9 97.6,317.3 97.6,323.7 128.9,319.3 128.9,312.9 								"/>
								<polyline class="st8" points="121.3,324.7 97.9,328 97.9,334.4 121.3,331.1 121.3,324.7 								"/>
								<polyline class="st9" points="113.2,336.5 97.9,338.6 97.9,345 113.2,342.9 113.2,336.5 								"/>
								<polyline class="st7" points="424.2,111.7 392.9,116.1 392.9,122.5 424.2,118.1 424.2,111.7 								"/>
								<polyline class="st8" points="416.6,123.5 393.2,126.8 393.2,133.2 416.6,129.9 416.6,123.5 								"/>
								<polyline class="st9" points="408.5,135.3 393.2,137.4 393.2,143.8 408.5,141.7 408.5,135.3 								"/>
								<polyline class="st3" points="297.8,78.7 225.9,88.8 225.9,101.6 297.8,91.4 297.8,78.7 								"/>
								<path class="st3" d="M141.6,94.3c-3.2,0.5-5.9,3.6-5.9,7.1c0,3.5,2.6,5.9,5.8,5.5c3.2-0.5,5.9-3.6,5.9-7.1
									C147.5,96.3,144.9,93.9,141.6,94.3"/>
								<path class="st3" d="M381.3,60.7c-3.2,0.5-5.9,3.6-5.9,7.1c0,3.5,2.6,5.9,5.8,5.5c3.2-0.5,5.9-3.6,5.9-7.1
									C387.1,62.7,384.5,60.2,381.3,60.7"/>
							</g>
						</g>
					</g>
				</g>
			</g>
		</g>
	</g>
</g>
</svg>
