<?xml version="1.0" encoding="utf-8"?>
<!-- Generator: Adobe Illustrator 24.0.2, SVG Export Plug-In . SVG Version: 6.00 Build 0)  -->
<svg version="1.1" id="Layer_1" xmlns="http://www.w3.org/2000/svg" xmlns:xlink="http://www.w3.org/1999/xlink" x="0px" y="0px"
	 viewBox="0 0 500 272.9" style="enable-background:new 0 0 500 272.9;" xml:space="preserve">
<style type="text/css">
	.st0{fill:none;stroke:#F41940;stroke-width:5;stroke-miterlimit:10;}
	.st1{fill:#F41940;}
</style>
<path class="st0" d="M378.4,242.4H53.7l51.1-194.8c2-7.7,9-13.1,17-13.1h324.5l-51,194.8C393.3,237,386.4,242.4,378.4,242.4z"/>
<g>
	<g>
		<path class="st1" d="M193.6,94.6h-18.3v15.2h20.4v7.8h-29.3V65.7h28.3v7.8h-19.4v13.4h18.3V94.6z"/>
		<path class="st1" d="M208.8,80.1l5.7,19.1c1,3.3,1.7,6.3,2.4,9.4h0.2c0.7-3.1,1.4-6.1,2.4-9.4l5.6-19.1h9.3L221,117.6h-8.7
			l-13-37.5H208.8z"/>
		<path class="st1" d="M246,101.5c0.2,6.8,5.2,9.8,10.8,9.8c4.1,0,7-0.7,9.7-1.7l1.3,6.5c-3,1.4-7.2,2.4-12.3,2.4
			c-11.4,0-18-7.5-18-19c0-10.4,5.9-20.2,17.1-20.2c11.4,0,15.1,10,15.1,18.2c0,1.8-0.1,3.2-0.3,4H246z M261.5,94.9
			c0-3.5-1.4-9.1-7.3-9.1c-5.5,0-7.7,5.3-8.1,9.1H261.5z"/>
		<path class="st1" d="M277,91.3c0-4.3-0.1-7.9-0.3-11.2h7.7l0.4,5.6h0.2c1.6-2.9,5.3-6.5,11.2-6.5c6.1,0,12.5,4.2,12.5,16.1v22.3
			h-8.9V96.4c0-5.4-1.8-9.5-6.7-9.5c-3.5,0-6,2.7-6.9,5.6c-0.3,0.8-0.4,1.9-0.4,3v22.1H277V91.3z"/>
		<path class="st1" d="M328.3,69.4v10.7h8.4v7.1h-8.4v16.6c0,4.6,1.1,6.9,4.5,6.9c1.5,0,2.7-0.2,3.4-0.4l0.2,7.2
			c-1.3,0.5-3.7,1-6.5,1c-3.3,0-6-1.2-7.6-3.1c-1.9-2.2-2.8-5.6-2.8-10.5V87.2h-5v-7.1h5v-8.5L328.3,69.4z"/>
		<path class="st1" d="M162,158.9c2.8-0.6,8-1.1,12.9-1.1c6.5,0,10.6,0.9,13.9,3.3c3,2,5,5.3,5,9.8c0,4.8-2.8,9.1-8.1,11.2v0.2
			c5.1,1.4,9.8,5.7,9.8,12.9c0,4.6-1.9,8.2-4.6,10.7c-3.5,3.2-9.1,4.8-18,4.8c-4.9,0-8.6-0.4-10.9-0.7V158.9z M170.8,179.4h4.5
			c6.1,0,9.6-3.1,9.6-7.5c0-4.9-3.5-7.1-9-7.1c-2.6,0-4.1,0.2-5.1,0.4V179.4z M170.8,203.2c1.2,0.2,2.7,0.3,4.7,0.3
			c5.7,0,10.8-2.3,10.8-8.7c0-6-5-8.5-11.1-8.5h-4.4V203.2z"/>
		<path class="st1" d="M236.5,191c0,13.8-9,20-18,20c-9.9,0-17.5-7.3-17.5-19.3c0-12.3,7.6-19.9,18.1-19.9
			C229.5,171.7,236.5,179.6,236.5,191z M210.1,191.4c0,7.2,3.4,12.7,8.7,12.7c5.1,0,8.6-5.3,8.6-12.8c0-5.9-2.4-12.6-8.6-12.6
			C212.6,178.6,210.1,185.1,210.1,191.4z"/>
		<path class="st1" d="M263.5,210.1l-0.6-4.2h-0.2c-2.1,3-5.8,5-10.3,5c-7.1,0-11.1-5.4-11.1-11.2c0-9.5,7.9-14.3,20.8-14.2V185
			c0-2.5-0.9-6.6-7.1-6.5c-3.4,0-7,1.2-9.4,2.8l-1.8-6.2c2.6-1.7,7.2-3.3,12.7-3.3c11.2,0,14.5,7.6,14.5,15.8v13.5
			c0,3.4,0.2,6.7,0.5,9H263.5z M262.3,191.7c-6.3-0.1-12.2,1.3-12.2,7c0,3.7,2.3,5.4,5.1,5.4c3.5,0,6.1-2.4,6.9-5.2
			c0.2-0.7,0.2-1.4,0.2-2.1V191.7z"/>
		<path class="st1" d="M280.4,184.7c0-5-0.1-8.7-0.3-12.1h7.7l0.3,7.1h0.2c1.7-5.3,5.8-8,9.6-8c0.9,0,1.4,0,2.1,0.2v8.9
			c-0.8-0.2-1.5-0.3-2.6-0.3c-4.2,0-7.2,2.9-7.9,7.2c-0.1,0.8-0.2,1.8-0.2,2.9v19.5h-8.9V184.7z"/>
		<path class="st1" d="M338.3,155.4v44.2c0,3.8,0.1,8,0.3,10.5h-7.9l-0.4-5.9h-0.2c-2.1,4.2-6.3,6.8-11.4,6.8c-8.4,0-15-7.6-15-19.2
			c-0.1-12.6,7.3-20,15.7-20c4.8,0,8.3,2.1,9.8,4.9h0.1v-21.2H338.3z M329.4,188.2c0-0.8,0-1.7-0.2-2.5c-0.8-3.7-3.6-6.7-7.6-6.7
			c-5.7,0-8.9,5.4-8.9,12.3c0,6.9,3.2,11.9,8.8,11.9c3.6,0,6.8-2.6,7.7-6.8c0.2-0.8,0.3-1.8,0.3-2.8V188.2z"/>
	</g>
</g>
</svg>
