<?xml version="1.0" encoding="utf-8"?>
<!-- Generator: Adobe Illustrator 24.0.2, SVG Export Plug-In . SVG Version: 6.00 Build 0)  -->
<svg version="1.1" id="Layer_1" xmlns="http://www.w3.org/2000/svg" xmlns:xlink="http://www.w3.org/1999/xlink" x="0px" y="0px"
	 viewBox="0 0 660 450" style="enable-background:new 0 0 660 450;" xml:space="preserve">
<style type="text/css">
	.st0{fill:#D9D9D9;}
	.st1{fill:none;stroke:#000000;stroke-width:3;stroke-miterlimit:10;}
	.st2{fill:#FFFFFF;stroke:#CECECE;stroke-miterlimit:10;}
	.st3{fill:#F41940;}
	.st4{fill:none;}
	.st5{fill:#FFFFFF;stroke:#000000;stroke-width:0.75;stroke-miterlimit:10;}
	.st6{fill:#E9D598;}
	.st7{fill:#FFE481;}
	.st8{fill:#E6CD7A;}
	.st9{fill:#D9B53D;}
	.st10{fill:#DDBD50;}
	.st11{fill:#FFFFFF;}
	.st12{opacity:0.52;fill:#F41940;}
</style>
<rect x="433" y="246.8" class="st0" width="214" height="191.3"/>
<rect x="502.6" y="26.8" class="st1" width="128" height="164.5"/>
<path class="st2" d="M609.2,25.6l10.5-1.3c0.1,0,0.3,0,0.4,0l-0.9-7.1l-18,2.3l0,0l1.4,10.9c0.4,3.4-4.9,4.1-5.3,0.7l-1.3-11l0,0
	l-9.3,1.2l1.3,10.5c0.4,3.4-4.9,4.1-5.3,0.7L581.4,22l-8.4,1l1.3,10.1c0.4,3.4-4.9,4.1-5.3,0.7l-1.3-10.1l-8.9,1.1l1.3,10.5
	c0.4,3.4-4.9,4.1-5.3,0.7l-1.3-10.5l-9.7,1.2l1.5,12.2c0.4,3.4-4.9,4.1-5.3,0.7l-1.5-12.2l-10.1,1.3l1.5,11.8
	c0.4,3.4-4.9,4.1-5.3,0.7l-1.5-11.8L513,30.7l1.5,11.8c0.4,3.4-4.9,4.1-5.3,0.7l-1.5-11.8l-18,2.3l0.9,7.1c0.1,0,0.3-0.1,0.4-0.1
	l9.7-1.2c3.4-0.4,4.1,4.9,0.7,5.3l-9.7,1.2c-0.1,0-0.3,0-0.4,0l1.2,9.3L503,54c3.4-0.4,4.1,4.9,0.7,5.3l-10.5,1.3l1.2,9.3l10.5-1.3
	c3.4-0.4,4.1,4.9,0.7,5.3L495,74.8l1.2,9.7l10.5-1.3c3.4-0.4,4.1,4.9,0.7,5.3l-10.5,1.3l1.2,9.7l10.5-1.3c3.4-0.4,4.1,4.9,0.7,5.3
	l-10.5,1.3l1.3,10.5l10.1-1.3c3.4-0.4,4.1,4.9,0.7,5.3l-10.1,1.3l0.9,7.3c0.1,0,0.3-0.1,0.4-0.1l9.7-1.2c3.4-0.4,4.1,4.9,0.7,5.3
	l-9.7,1.2c-0.1,0-0.3,0-0.4,0l1.2,9.3c0.1,0,0.3-0.1,0.4-0.1l8.9-1.1c3.4-0.4,4.1,4.9,0.7,5.3l-8.9,1.1c-0.1,0-0.3,0-0.4,0l1.3,10.6
	c0.1,0,0.3-0.1,0.4-0.1l8.9-1.1c3.4-0.4,4.1,4.9,0.7,5.3l-8.9,1.1c-0.1,0-0.3,0-0.4,0l1.3,10.1l9.7-1.2c3.4-0.4,4.1,4.9,0.7,5.3
	l-9.7,1.2l1.1,8.9l10.5-1.3c3.4-0.4,4.1,4.9,0.7,5.3l-10.5,1.3l1.3,10.7l17.6-2.2l-1.2-9.7c-0.4-3.4,4.9-4.1,5.3-0.7l1.2,9.7
	l10.5-1.3l-1.2-9.7c-0.4-3.4,4.9-4.1,5.3-0.7l1.2,9.7l10.1-1.3l-1.2-9.7c-0.4-3.4,4.9-4.1,5.3-0.7l1.2,9.7l9.3-1.2l-1.4-10.9
	c-0.4-3.4,4.9-4.1,5.3-0.7l1.4,10.9l9.3-1.2l-1.3-10.5c-0.4-3.4,4.9-4.1,5.3-0.7l1.3,10.5l8.1-1l-1.4-10.9c-0.2-1.5,0.9-2.7,2.3-3
	c1.4-0.2,2.8,0.9,3,2.3l1.4,10.9l10.1-1.3l-1.3-10.5c-0.4-3.4,4.9-4.1,5.3-0.7l1.3,10.5l17.6-2.2l-1.3-10.3l-10.1,1.3
	c-3.4,0.4-4.1-4.9-0.7-5.3l10.1-1.3l-1.2-9.3l-10.1,1.3c-3.4,0.4-4.1-4.9-0.7-5.3l10.1-1.3l-1.3-10.1l-10.1,1.3
	c-3.4,0.4-4.1-4.9-0.7-5.3l10.1-1.3l-1.2-9.7l-10.1,1.3c-3.4,0.4-4.1-4.9-0.7-5.3l9.8-0.8l-1.2-9.7l-10.5,1.3
	c-3.4,0.4-4.1-4.9-0.7-5.3l10.5-1.3l-1.1-8.5l-11.3,1.4c-3.4,0.4-4.1-4.9-0.7-5.3l11.3-1.4L628,88.1l-11.3,1.4
	c-3.4,0.4-4.1-4.9-0.7-5.3l11.3-1.4l-1.2-9.3L615.4,75c-3.4,0.4-4.1-4.9-0.7-5.3l10.9-1.4l-1.3-10.1l-10.5,1.3
	c-3.4,0.4-4.1-4.9-0.7-5.3l10.5-1.3l-1.2-9.3L611.1,45c-3.4,0.4-4.1-4.9-0.7-5.3l11.3-1.4l-1.1-8.9c-0.1,0-0.3,0.1-0.4,0.1
	l-10.5,1.3C606.5,31.3,605.8,26.1,609.2,25.6z"/>
<rect x="520.2" y="47.6" transform="matrix(0.9923 -0.1241 0.1241 0.9923 -9.3329 70.9763)" class="st3" width="89.7" height="125.6"/>
<g>
	<g>
		<path d="M472.8,311.8h-4.2l0.3-1.7h10.3l-0.3,1.7h-4.2l-2.7,14.5H470L472.8,311.8z"/>
		<path d="M477.8,326.3l3.2-16.9h1.9l-1.4,7.2l0,0c0.9-1.4,2.2-2.2,3.8-2.2c1.3,0,2.6,0.9,2.6,2.9c0,0.6-0.1,1.3-0.2,2l-1.3,7h-1.9
			l1.3-7c0.1-0.4,0.2-1,0.2-1.6c0-1-0.5-1.7-1.6-1.7c-1.4,0-3.1,1.8-3.6,4.2l-1.1,6.1H477.8z"/>
		<path d="M497.4,325.7c-0.9,0.5-2.1,0.9-3.5,0.9c-2.9,0-4.1-2-4.1-4.5c0-3.4,2.3-7.6,6-7.6c2.1,0,3.1,1.3,3.1,2.9
			c0,3-3.1,3.9-7.1,3.8c-0.1,0.5-0.1,1.6,0.2,2.3c0.4,1,1.2,1.5,2.3,1.5c1.2,0,2.1-0.4,2.8-0.7L497.4,325.7z M495.5,316
			c-1.6,0-3,1.7-3.5,3.7c2.7,0,5-0.5,5-2.3C497.1,316.5,496.5,316,495.5,316z"/>
		<path d="M512.5,318.7h-5.3l-1.1,6h6l-0.3,1.7h-7.9l3.1-16.2h7.6l-0.3,1.7h-5.6l-1,5.3h5.3L512.5,318.7z"/>
		<path d="M516.9,314.7l0.8,6.6c0.1,1.3,0.2,2.1,0.3,2.8h0.1c0.3-0.7,0.6-1.5,1.2-2.7l3.3-6.7h2.1l-6.1,11.6h-1.9l-1.6-11.6H516.9z"
			/>
		<path d="M532,325.7c-0.9,0.5-2.1,0.9-3.5,0.9c-2.9,0-4.1-2-4.1-4.5c0-3.4,2.3-7.6,6-7.6c2.1,0,3.1,1.3,3.1,2.9
			c0,3-3.1,3.9-7.1,3.8c-0.1,0.5-0.1,1.6,0.2,2.3c0.4,1,1.2,1.5,2.3,1.5c1.2,0,2.1-0.4,2.8-0.7L532,325.7z M530.1,316
			c-1.6,0-3,1.7-3.5,3.7c2.7,0,5-0.5,5-2.3C531.7,316.5,531,316,530.1,316z"/>
		<path d="M534.3,326.3l1.5-8.1c0.3-1.4,0.4-2.6,0.6-3.6h1.7l-0.3,2.1h0c1-1.6,2.4-2.4,4-2.4c1.4,0,2.7,0.9,2.7,3
			c0,0.6-0.1,1.2-0.2,1.9l-1.3,7H541l1.3-7c0.1-0.5,0.2-1,0.2-1.5c0-1-0.4-1.8-1.6-1.8c-1.3,0-3.1,1.7-3.6,4.4l-1.1,5.9H534.3z"/>
		<path d="M551.1,311.6l-0.6,3.1h2.6l-0.3,1.5h-2.6l-1.1,5.9c-0.1,0.6-0.2,1.2-0.2,1.7c0,0.7,0.3,1.1,1,1.1c0.3,0,0.6,0,0.9-0.1
			l-0.1,1.5c-0.4,0.1-0.9,0.2-1.4,0.2c-1.6,0-2.3-1-2.3-2.1c0-0.6,0.1-1.2,0.2-2.1l1.2-6.1h-1.6l0.3-1.5h1.6l0.5-2.6L551.1,311.6z"
			/>
		<path d="M562.2,310.1l-1.3,6.9h6.6l1.3-6.9h1.9l-3.1,16.2h-1.9l1.4-7.6h-6.6l-1.4,7.6h-1.9l3.1-16.2H562.2z"/>
		<path d="M581.2,319c0,3.4-2.2,7.6-6,7.6c-2.7,0-4-2.1-4-4.5c0-3.6,2.4-7.6,6-7.6C580.1,314.5,581.2,316.8,581.2,319z M573.1,321.9
			c0,1.7,0.8,3.1,2.3,3.1c2.3,0,3.8-3.6,3.8-6.1c0-1.3-0.5-2.9-2.3-2.9C574.7,316,573.1,319.4,573.1,321.9z"/>
		<path d="M582.4,326.3l1.4-7.6c0.3-1.5,0.5-3,0.6-4h1.7c-0.1,0.7-0.2,1.5-0.3,2.4h0.1c0.8-1.5,1.9-2.7,3.4-2.7c0.2,0,0.4,0,0.5,0
			l-0.4,1.9c-0.1,0-0.3,0-0.4,0c-1.7,0-3.1,2.1-3.6,4.5l-1,5.4H582.4z"/>
		<path d="M589.6,324.4c0.5,0.3,1.4,0.7,2.3,0.7c1.3,0,2.1-0.9,2.1-1.9c0-0.9-0.4-1.5-1.5-2.2c-1.2-0.7-1.9-1.8-1.9-2.9
			c0-2,1.7-3.6,4-3.6c1,0,1.8,0.3,2.2,0.5l-0.5,1.5c-0.4-0.2-1.1-0.5-1.8-0.5c-1.2,0-2,0.8-2,1.8c0,0.9,0.5,1.4,1.4,1.9
			c1.2,0.8,2,1.8,2,3c0,2.5-1.9,3.8-4.2,3.8c-1.1,0-2.2-0.4-2.7-0.7L589.6,324.4z"/>
		<path d="M605.6,325.7c-0.9,0.5-2.1,0.9-3.5,0.9c-2.9,0-4.1-2-4.1-4.5c0-3.4,2.3-7.6,6-7.6c2.1,0,3.1,1.3,3.1,2.9
			c0,3-3.1,3.9-7.1,3.8c-0.1,0.5-0.1,1.6,0.2,2.3c0.4,1,1.2,1.5,2.3,1.5c1.2,0,2.1-0.4,2.8-0.7L605.6,325.7z M603.7,316
			c-1.6,0-3,1.7-3.5,3.7c2.7,0,5-0.5,5-2.3C605.3,316.5,604.6,316,603.7,316z"/>
	</g>
</g>
<g id="Layer_1_1_">
	<g>
		<path class="st4" d="M620.5,148.1c-34.1,4.3-68.2,8.5-102.3,12.8c-4.3-34.1-8.5-68.2-12.8-102.3c34.1-4.3,68.2-8.5,102.3-12.8
			C612,79.9,616.3,114,620.5,148.1z M579.9,91.6L579.9,91.6C579.9,91.5,579.9,91.5,579.9,91.6c0.1-0.3,0.1-0.5,0.2-0.7
			c0.1-0.2,0.1-0.4,0.2-0.6c0-0.1-0.1-0.1-0.2-0.2c-0.5-0.4-1-0.8-1.6-1.2c-0.8-0.6-1.6-1.1-2.4-1.7l-0.1-0.1c-0.1,0-0.1,0-0.2,0
			c-0.1,0.1-0.1,0.2-0.2,0.2c-0.6,0.8-1.1,1.6-1.7,2.5c-1.1,1.6-2.2,3.2-3.4,4.8c-0.1,0.2-0.3,0.4-0.4,0.6c-0.1,0.1-0.1,0.2,0,0.3
			c0.1,0,0.1,0.1,0.2,0.1c0.6,0.4,1.1,0.8,1.7,1.3c1.1,0.9,2.2,1.8,3.3,2.7c0.2,0.2,0.3,0.2,0.4,0c0.3-0.4,0.7-0.8,1-1.2
			c0.9-1,1.7-2,2.6-3c0.6-0.7,1.2-1.4,1.7-2.1c0.3-0.4,0.6-0.7,0.9-1.1c0.1-0.2,0.1-0.2,0-0.3c-0.2-0.2-0.4-0.4-0.6-0.6
			c-0.1-0.1-0.2-0.1-0.3,0c-0.2,0.1-0.3,0.2-0.5,0.2C580.4,91.4,580.1,91.5,579.9,91.6z M555.7,81.1c-0.1-0.4-0.1-0.8-0.2-1.3
			c0-0.1,0-0.1,0-0.1c0-0.1-0.1-0.1-0.2-0.1c-0.1,0-0.2,0-0.3,0c-0.4,0-0.9,0.1-1.3,0.2c-0.1,0-0.2,0.1-0.1,0.2
			c0,0.2,0.1,0.3,0.1,0.5c0.2,0.7,0.4,1.4,0.6,2.1c0.3,0.9,0.5,1.8,0.8,2.8c0.3,0.9,0.5,1.9,0.8,2.8c0.1,0.3,0,0.3,0.4,0.4
			c1,0.2,2,0.4,3,0.6c1.2,0.3,2.3,0.7,3.4,1.1c0.1,0,0.2,0.1,0.2,0.1c0.1,0,0.1-0.1,0.1-0.2c0.2-0.4,0.4-0.8,0.5-1.2
			c1-2.2,2-4.4,3-6.6c0-0.1,0.1-0.1,0.1-0.2s0-0.2-0.1-0.2c-0.1-0.1-0.3-0.2-0.5-0.3c-0.1-0.1-0.2-0.1-0.3-0.2c-0.1,0-0.2,0-0.2,0.1
			l-0.1,0.1c-0.3,0.3-0.6,0.6-0.9,1c0,0-0.1,0-0.1,0.1c0-0.1,0-0.1,0-0.2c0.1-0.4,0.1-0.8,0.2-1.1c0.1-0.4,0.1-0.3-0.3-0.5
			c-1-0.4-2.1-0.6-3.2-0.8c-1.4-0.3-2.8-0.5-4.3-0.5c-0.1,0-0.3,0-0.4,0c-0.2,0-0.2,0-0.3,0.2l0,0c-0.2,0.4-0.3,0.9-0.5,1.3
			C555.7,81.1,555.7,81.1,555.7,81.1z M558.6,102.9L558.6,102.9c0.2,0.4,0.4,0.8,0.4,1.2c0.1,0.7,0.2,1.4,0.1,2.2
			c-0.2,1.8-0.9,3.3-2.2,4.6c-0.2,0.2-0.4,0.4-0.6,0.5c-0.1,0.1-0.1,0.1-0.1,0.3c0.1,0.1,0.1,0.2,0.2,0.3c0.3,0.6,0.5,1.2,0.7,1.8
			c0.3,0.9,0.5,1.7,0.7,2.6c0.1,0.4,0.1,0.9,0.2,1.3c0,0,0,0,0,0.1c0,0.3,0.1,0.6,0.1,0.9c0.1,0.8,0.2,1.7,0.2,2.5s0,1.6-0.1,2.3
			c-0.1,1.1-0.2,2.1-0.5,3.2c-0.1,0.4-0.2,0.7-0.3,1.1c0,0.1,0,0.2,0.1,0.2s0.1,0,0.2-0.1c1.1-0.5,2.1-0.9,3.2-1.3
			c0.8-0.3,1.6-0.5,2.4-0.7c0.6-0.1,1.1-0.3,1.7-0.4c0.5-0.1,1-0.2,1.5-0.3c0.5-0.1,1.1-0.2,1.6-0.3c1-0.1,2-0.3,3-0.3
			c0.8-0.1,1.7-0.1,2.5-0.1c0.9,0,1.7,0,2.6,0.1c1.9,0.1,3.7,0.4,5.5,0.8c2.7,0.6,5.2,1.5,7.7,2.7c1.6,0.9,3.2,1.9,4.6,3
			c0.9,0.7,1.7,1.5,2.4,2.3l0.1,0.1h0.1c0.1,0,0.1-0.1,0.1-0.1c0-0.1,0-0.1,0-0.2c-0.2-0.6-0.3-1.3-0.5-1.9
			c-0.4-1.3-0.8-2.6-1.3-3.8c-0.8-2-1.7-4-2.8-6c-1.4-2.5-2.9-5-4.5-7.4c-1.5-2.2-3.2-4.3-4.9-6.4c-1.7-1.9-3.4-3.8-5.3-5.6
			c-1.3-1.3-2.7-2.5-4.1-3.6c-0.6-0.5-1.2-0.9-1.8-1.4c-0.8-0.6-1.6-1.2-2.5-1.7c-2.1-1.4-4.3-2.6-6.6-3.5c-0.1,0-0.1-0.1-0.2-0.1
			c0-0.1,0.1-0.2,0.1-0.3c0.1-0.2,0.1-0.3,0.2-0.5c0-0.1,0-0.2-0.1-0.2c0,0-0.1,0-0.1-0.1c-0.5-0.2-1-0.4-1.6-0.6
			c-2.2-0.7-4.5-1.2-6.8-1.4c-0.5-0.1-1.1-0.1-1.6-0.1c-0.4,0-0.9,0-1.3,0c-1.3-0.1-2.6-0.2-3.8-0.4c-1.6-0.3-3.3-0.7-4.8-1.3
			c-0.8-0.3-1.6-0.7-2.3-1.1c-0.6-0.3-1.1-0.7-1.5-1.2c0,0,0-0.1-0.1-0.1c0,0-0.1,0-0.2,0c0,0.1,0,0.1-0.1,0.2
			c-0.2,0.6-0.2,1.2-0.2,1.8c0,0.3,0,0.7,0,1c0,0.1,0,0.2,0,0.3v0.1c0.1,1,0.4,1.9,0.9,2.7c0.4,0.8,1,1.5,1.7,2.1
			c0.5,0.4,1.1,0.6,1.7,0.7h0.1c-0.1,0-0.1,0.1-0.1,0.1c-0.2,0.2-0.4,0.4-0.6,0.5c-0.8,0.5-1.6,1-2.5,1.3c-0.8,0.4-1.7,0.7-2.5,0.9
			c0,0,0,0-0.1,0c-0.2,0-0.4,0.1-0.6,0.1c-0.5,0.1-0.9,0.4-1.1,0.9c-0.1,0.1-0.1,0.3-0.1,0.5c-0.1,0.3,0,0.7,0,1
			c0.1,0.4,0.1,0.8,0.2,1.2c0,0,0,0,0,0.1c0,0.3,0.1,0.5,0.1,0.8c0,0.7-0.1,1.4-0.2,2.1c-0.2,1.1-0.7,2.2-1.2,3.2
			c-0.7,1.3-1.6,2.4-2.7,3.4c-0.4,0.4-0.8,0.8-1.1,1.2c-0.4,0.6-0.7,1.3-0.9,2c-0.2,0.9-0.2,1.8,0.2,2.7c0.2,0.5,0.5,1,0.9,1.5
			c0.1,0.1,0.1,0.1,0.2,0.3c0,0.3,0.2,0.6,0.4,0.8c0.4,0.5,1,0.8,1.6,0.9c0.2,0,0.4,0,0.6,0c0.5-0.1,0.9-0.3,1.2-0.7l0.1-0.1h0.1
			v0.1c0,0.1-0.1,0.1-0.1,0.2c-0.2,0.2-0.4,0.4-0.7,0.5c-0.1,0-0.1,0.1-0.2,0.1l0.1,0.1c0.3,0.3,0.6,0.5,1,0.7
			c0.7,0.3,1.5,0.4,2.2,0.3c1-0.1,1.9-0.5,2.7-1c0.8-0.7,1.4-1.4,1.8-2.4c0.1-0.3,0.3-0.6,0.4-0.8c0.4-0.5,0.8-0.9,1.2-1.2
			c1.2-1,2.6-1.7,4.2-2.1c0.3-0.1,0.7-0.1,1.1-0.1c0.5,0,1,0,1.5,0c0.9-0.1,1.8-0.2,2.7-0.4c0.7-0.2,1.3-0.4,1.9-0.7
			c1-0.4,1.9-1.1,2.7-1.8c0.9-0.9,1.5-2.1,1.8-3.4c0.2-1,0.1-2-0.1-3C558.7,103.2,558.6,103,558.6,102.9z M550.4,81.1
			c-0.1-0.1-0.2-0.2-0.3-0.3c-0.2-0.2-0.4-0.3-0.6-0.5c-0.1-0.1-0.2-0.1-0.3-0.1h-0.1c-0.5,0.1-1,0.2-1.5,0.3
			c-0.7,0.2-1.4,0.4-2.1,0.6c-1.3,0.4-2.6,0.9-3.8,1.5c-0.8,0.3-1.5,0.7-2.3,1.2c-0.1,0-0.1,0.1-0.1,0.1c-0.1,0.1-0.1,0.2,0,0.3
			l0.1,0.1c0.1,0.1,0.2,0.2,0.3,0.3c0.5,0.4,1,0.7,1.6,1c1,0.5,2,0.9,3.1,1.2c1.7,0.5,3.5,0.9,5.3,1.1c0.6,0.1,1.2,0.1,1.7,0.1
			c0.3,0,0.5,0,0.8,0c0.9,0,1.7,0,2.6,0.2h0.1c0.1,0,0.1-0.1,0.1-0.1V88c0-0.2-0.1-0.3-0.1-0.5c-0.2-0.8-0.4-1.6-0.6-2.4
			c-0.2-0.9-0.5-1.8-0.7-2.7c-0.2-0.8-0.4-1.5-0.6-2.3c0-0.2-0.1-0.2-0.3-0.2c-0.5,0-0.9,0-1.4,0.1C551,80.3,550.7,80.7,550.4,81.1z
			 M563.2,91.4c0.1,0.1,0.1,0.1,0.2,0.1c0.1,0.1,0.2,0.1,0.3,0.2c1.8,0.9,3.6,1.9,5.4,2.9c0.3,0.2,0.3,0.3,0.5-0.1
			c0.8-1.1,1.6-2.3,2.4-3.4c1-1.4,2-2.9,3-4.3l0.1-0.1c0-0.1,0-0.2,0-0.2c-0.1,0-0.1-0.1-0.2-0.1c-0.4-0.3-0.8-0.5-1.2-0.7
			c-0.3-0.2-0.6-0.4-0.9-0.5c-0.1-0.1-0.2-0.1-0.3,0c-0.1,0-0.2,0.1-0.2,0.1c-0.4,0.1-0.8,0.3-1.2,0.4c-0.1,0-0.2,0.1-0.3,0.1v-0.1
			c-0.1-0.6-0.3-1.1-0.4-1.7c0-0.1-0.1-0.2-0.2-0.3c-0.7-0.4-1.5-0.7-2.2-1.1c-0.3-0.1-0.3-0.1-0.4,0.2c-0.4,0.9-0.8,1.7-1.2,2.6
			c-0.9,2-1.9,4-2.8,6C563.3,91.1,563.3,91.3,563.2,91.4z M576.2,100.2L576.2,100.2c0.1,0.1,0.1,0.2,0.2,0.2
			c1.5,1.3,2.9,2.7,4.2,4.1c0.1,0.2,0.3,0.3,0.5,0.5s0.2,0.2,0.4,0c0.1,0,0.1-0.1,0.1-0.1c1.9-1.8,3.8-3.7,5.7-5.5
			c0.4-0.4,0.8-0.7,1.1-1.1c0.1-0.1,0.1-0.2,0-0.3c0,0,0-0.1-0.1-0.1c-0.8-0.9-1.7-1.8-2.7-2.7c-0.8-0.8-1.6-1.5-2.5-2.2
			c-0.1-0.1-0.2-0.2-0.3-0.2c-0.1-0.1-0.2-0.1-0.2,0c0,0-0.1,0-0.1,0.1c-0.2,0.2-0.4,0.4-0.5,0.6c-1.1,1.3-2.2,2.6-3.3,3.9
			c-0.8,0.9-1.5,1.8-2.3,2.7C576.4,100,576.3,100.1,576.2,100.2z M586.3,111c0.1,0,0.1-0.1,0.2-0.1c0.2-0.2,0.4-0.3,0.7-0.5
			c2.3-1.8,4.5-3.6,6.8-5.3c0.1,0,0.1-0.1,0.2-0.2c0.1-0.1,0.1-0.1,0-0.2c0-0.1-0.1-0.2-0.2-0.2c-0.6-0.9-1.3-1.7-2-2.6
			c0-0.1-0.1-0.1-0.1-0.1c-0.2,0-0.4,0.1-0.6,0.1c-0.2,0-0.4,0.1-0.6,0.1c-0.2,0-0.4,0.1-0.6,0.1c0-0.1,0-0.1,0.1-0.2
			c0.2-0.4,0.4-0.8,0.5-1.2c0.1-0.1,0-0.2,0-0.3c-0.5-0.5-0.9-1-1.4-1.5c-0.1-0.2-0.2-0.1-0.3,0c-0.1,0-0.1,0.1-0.1,0.1
			c-0.8,0.7-1.5,1.5-2.3,2.2c-1.5,1.4-3,2.8-4.5,4.3c-0.1,0-0.1,0.1-0.1,0.1c-0.1,0.1-0.1,0.1,0,0.2c0,0.1,0.1,0.1,0.1,0.2
			c1,1.1,2.1,2.3,3,3.5C585.5,110,585.8,110.4,586.3,111C586.1,110.9,586.2,111,586.3,111z M594.6,107.6c0.1-0.2,0.2-0.3,0.2-0.5
			c0.1-0.3,0.3-0.6,0.4-0.8c0.1-0.1,0.1-0.3,0-0.4s-0.2-0.3-0.3-0.4c0,0,0-0.1-0.1-0.1c-0.1-0.1-0.1-0.1-0.2,0
			c-0.1,0-0.1,0.1-0.2,0.2c-1.1,0.8-2.1,1.6-3.2,2.5c-1.4,1.1-2.8,2.2-4.3,3.3c0,0-0.1,0-0.1,0.1c-0.2,0.1-0.2,0.2,0,0.3
			c0,0.1,0.1,0.1,0.1,0.2c0.7,0.9,1.4,1.9,2,2.9c0.5,0.8,1,1.6,1.5,2.4c0,0.1,0.1,0.1,0.1,0.2s0.1,0.1,0.2,0c0,0,0.1,0,0.1-0.1
			c1-0.7,2-1.5,3-2.2c1.5-1.1,3-2.2,4.5-3.3c0.1,0,0.1-0.1,0.2-0.2c0.1-0.1,0.1-0.1,0-0.2c-0.2-0.3-0.4-0.7-0.6-1
			c0-0.1-0.1-0.1-0.2-0.1c-0.2,0-0.4,0-0.6,0.1c-0.2,0-0.4,0-0.7,0.1l0,0l0,0c0.2-0.3,0.5-0.7,0.7-1c0.1-0.1,0.1-0.2,0-0.3
			c-0.3-0.5-0.6-1-0.9-1.4l-0.1-0.1c0-0.1-0.1-0.1-0.2-0.1h-0.1C595.5,107.5,595,107.6,594.6,107.6z M602.4,119.1
			c0-0.1-0.1-0.2-0.1-0.2c-0.5-1.2-1.1-2.4-1.7-3.5c-0.5-0.9-0.9-1.8-1.4-2.8c0,0,0-0.1-0.1-0.1c-0.1-0.1-0.1-0.2-0.3-0.1
			c-0.1,0-0.1,0.1-0.2,0.1c-0.9,0.6-1.9,1.3-2.8,2c-1.5,1.1-3.1,2.1-4.6,3.2c-0.1,0.1-0.2,0.1-0.3,0.2s-0.1,0.1-0.1,0.2
			s0.1,0.1,0.1,0.2c1,1.7,1.9,3.5,2.8,5.3c0.1,0.1,0.1,0.2,0.2,0.3c0,0.1,0.1,0.1,0.2,0.1c0.1,0,0.1-0.1,0.2-0.1
			c0.3-0.2,0.6-0.3,0.8-0.5c2.3-1.3,4.6-2.6,6.9-3.9c0.1,0,0.1-0.1,0.2-0.1C602.4,119.2,602.4,119.2,602.4,119.1z M602.9,123.5
			c0-0.1,0.1-0.1,0.1-0.2c0.2-0.3,0.4-0.6,0.6-1c0.1-0.1,0.1-0.2,0-0.3c-0.2-0.6-0.4-1.2-0.6-1.8c0-0.1-0.1-0.3-0.2-0.4
			c-0.1-0.1-0.1-0.1-0.2-0.1c-0.1,0-0.2,0.1-0.3,0.1c-0.6,0.4-1.2,0.7-1.9,1.1c-1.9,1.1-3.8,2.2-5.8,3.3c-0.3,0.2-0.3,0.2-0.1,0.4
			c0.7,1.5,1.3,3,1.8,4.6c0.4,1.3,0.9,2.7,1.1,4.1c0,0.1,0,0.1,0.1,0.2c0.1,0.1,0.2,0.1,0.3,0c0,0,0-0.1,0.1-0.2
			c0.1-0.2,0.2-0.4,0.3-0.6c0.3-0.5,0.6-1.1,1-1.5c0.7-0.9,1.5-1.8,2.3-2.5c1-0.9,2-1.7,3.2-2.3c0.1-0.1,0.2-0.1,0.1-0.3V126
			c-0.1-0.5-0.3-1-0.4-1.6c0-0.1-0.1-0.2-0.2-0.3c-0.2-0.1-0.3-0.2-0.5-0.3C603.3,123.8,603.1,123.7,602.9,123.5z"/>
		<path class="st5" d="M535.3,100.1c-0.1-0.4-0.1-0.8-0.2-1.2c-0.1-0.3-0.1-0.7,0-1c0-0.2,0.1-0.3,0.1-0.5c0.2-0.5,0.5-0.8,1.1-0.9
			c0.2,0,0.4-0.1,0.6-0.1c0,0,0,0,0.1,0c0.9-0.2,1.7-0.5,2.5-0.9c0.9-0.4,1.7-0.8,2.5-1.3c0.2-0.2,0.4-0.3,0.6-0.5l0.1-0.1
			c-0.1,0-0.1,0-0.1,0c-0.6-0.1-1.2-0.3-1.7-0.7c-0.7-0.5-1.3-1.3-1.7-2.1c-0.5-0.9-0.8-1.8-0.9-2.7V88c0-0.1,0-0.2,0-0.3
			c0-0.3,0-0.7,0-1c0-0.6,0.1-1.2,0.2-1.8c0-0.1,0-0.1,0.1-0.2c0-0.1,0.1-0.1,0.2,0c0,0,0,0.1,0.1,0.1c0.4,0.5,0.9,0.9,1.5,1.2
			c0.7,0.5,1.5,0.8,2.3,1.1c1.6,0.6,3.2,1,4.8,1.3c1.3,0.2,2.5,0.4,3.8,0.4c0.4,0,0.9,0,1.3,0c0.5,0,1.1,0,1.6,0.1
			c2.3,0.2,4.6,0.7,6.8,1.4c0.5,0.2,1.1,0.4,1.6,0.6c0,0,0.1,0,0.1,0.1c0.1,0,0.1,0.1,0.1,0.2c-0.1,0.2-0.1,0.3-0.2,0.5
			c0,0.1-0.1,0.2-0.1,0.3c0.1,0,0.1,0.1,0.2,0.1c2.3,0.9,4.5,2.1,6.6,3.5c0.9,0.6,1.7,1.1,2.5,1.7c0.6,0.5,1.2,0.9,1.8,1.4
			c1.4,1.1,2.8,2.3,4.1,3.6c1.9,1.8,3.6,3.6,5.3,5.6c1.8,2,3.4,4.1,4.9,6.4c1.7,2.4,3.2,4.8,4.5,7.4c1,1.9,2,3.9,2.8,6
			c0.5,1.2,0.9,2.5,1.3,3.8c0.2,0.6,0.3,1.3,0.5,1.9c0,0.1,0,0.1,0,0.2c0,0.1,0,0.1-0.1,0.1h-0.1l-0.1-0.1c-0.8-0.8-1.6-1.6-2.4-2.3
			c-1.4-1.2-3-2.2-4.6-3c-2.4-1.3-5-2.2-7.7-2.7c-1.8-0.4-3.7-0.6-5.5-0.8c-0.9-0.1-1.7-0.1-2.6-0.1c-0.9,0-1.7,0-2.5,0.1
			c-1,0.1-2,0.2-3,0.3c-0.5,0.1-1.1,0.2-1.6,0.3c-0.5,0.1-1,0.2-1.5,0.3c-0.6,0.1-1.1,0.3-1.7,0.4c-0.8,0.2-1.6,0.5-2.4,0.7
			c-1.1,0.4-2.2,0.8-3.2,1.3c-0.1,0-0.2,0.1-0.2,0.1c-0.1-0.1-0.1-0.1-0.1-0.2c0.1-0.4,0.2-0.7,0.3-1.1c0.3-1,0.4-2.1,0.5-3.2
			c0.1-0.8,0.1-1.6,0.1-2.3c0-0.8-0.1-1.7-0.2-2.5c0-0.3-0.1-0.6-0.1-0.9l0,0l0,0c-0.1-0.4-0.1-0.9-0.2-1.3
			c-0.2-0.9-0.4-1.8-0.7-2.6c-0.2-0.6-0.4-1.2-0.7-1.8c-0.1-0.1-0.1-0.2-0.2-0.3c-0.1-0.1-0.1-0.2,0.1-0.3c0.2-0.2,0.4-0.4,0.6-0.5
			c1.3-1.2,2-2.8,2.2-4.6c0.1-0.7,0-1.5-0.1-2.2c-0.1-0.4-0.2-0.8-0.3-1.2c-0.1-0.2-0.2-0.4-0.3-0.7c0.1,0.2,0.1,0.4,0.2,0.7
			c0,0.2,0.1,0.3,0.2,0.5c0.2,1,0.3,2,0.1,3c-0.2,1.3-0.9,2.4-1.8,3.4c-0.8,0.8-1.7,1.4-2.7,1.8c-0.6,0.3-1.3,0.5-1.9,0.7
			c-0.9,0.2-1.8,0.4-2.7,0.4c-0.5,0-1,0-1.5,0c-0.4,0-0.7,0-1.1,0.1c-1.6,0.4-2.9,1.1-4.2,2.1c-0.5,0.4-0.9,0.8-1.2,1.2
			c-0.2,0.2-0.3,0.5-0.4,0.8c-0.3,1-1,1.7-1.8,2.3c-0.8,0.6-1.7,0.9-2.7,1c-0.8,0.1-1.5,0-2.2-0.3c-0.4-0.2-0.7-0.4-1-0.7l-0.1-0.1
			c0-0.1,0.1-0.1,0.2-0.1c0.3-0.1,0.5-0.3,0.7-0.5c0.1,0,0.1-0.1,0.1-0.2v-0.1h-0.1c0,0-0.1,0-0.1,0.1c-0.3,0.4-0.8,0.6-1.2,0.7
			c-0.2,0-0.4,0-0.6,0c-0.7-0.1-1.2-0.4-1.6-0.9c-0.2-0.2-0.4-0.5-0.4-0.8c0-0.1-0.1-0.2-0.2-0.3c-0.4-0.4-0.7-0.9-0.9-1.5
			c-0.3-0.9-0.4-1.8-0.2-2.7c0.2-0.7,0.5-1.4,0.9-2c0.3-0.5,0.7-0.9,1.1-1.2c1.1-1,2-2.1,2.7-3.4c0.6-1,1-2.1,1.2-3.2
			c0.2-0.7,0.2-1.4,0.2-2.1C535.4,100.6,535.3,100.4,535.3,100.1L535.3,100.1L535.3,100.1z M537.3,101.8
			C537.4,101.8,537.4,101.8,537.3,101.8c0.1,0,0.2-0.1,0.3-0.1c0.7-0.5,1.3-1,1.9-1.7c0.5-0.5,0.9-1,1.2-1.6
			c0.1-0.2,0.3-0.5,0.3-0.7v-0.1h-0.1c-0.6,0-1.2,0-1.7,0.1c-0.2,0-0.3,0.1-0.5,0.2s-0.4,0.2-0.4,0.5c-0.2,0.9-0.5,1.7-0.7,2.6
			C537.5,101.1,537.4,101.5,537.3,101.8z"/>
		<path class="st5" d="M555.8,81.1c0.2-0.4,0.3-0.9,0.5-1.3l0,0c0.1-0.2,0.1-0.2,0.3-0.2c0.1,0,0.3,0,0.4,0c1.4,0.1,2.8,0.3,4.3,0.5
			c1.1,0.2,2.1,0.5,3.2,0.8c0.3,0.1,0.3,0.1,0.3,0.5c-0.1,0.4-0.2,0.8-0.2,1.1c0,0,0,0.1,0,0.2c0.1,0,0.1-0.1,0.1-0.1
			c0.3-0.3,0.6-0.6,0.9-1l0.1-0.1c0.1-0.1,0.1-0.1,0.2-0.1c0.1,0.1,0.2,0.1,0.3,0.2c0.2,0.1,0.3,0.2,0.5,0.3c0.1,0,0.1,0.1,0.1,0.2
			s-0.1,0.1-0.1,0.2c-1,2.2-2,4.4-3,6.6c-0.2,0.4-0.4,0.8-0.5,1.2c0,0.1,0,0.1-0.1,0.2c-0.1,0-0.2,0-0.2-0.1
			c-1.1-0.4-2.3-0.8-3.4-1.1c-1-0.3-2-0.5-3-0.6c-0.4-0.1-0.3-0.1-0.4-0.4c-0.3-0.9-0.5-1.9-0.8-2.8s-0.5-1.8-0.8-2.8
			c-0.2-0.7-0.4-1.4-0.6-2.1c0-0.2-0.1-0.3-0.1-0.5c0-0.1,0-0.2,0.1-0.2c0.4-0.1,0.9-0.1,1.3-0.2c0.1,0,0.2,0,0.3,0s0.1,0,0.2,0.1
			c0,0.1,0,0.1,0,0.1c0.1,0.4,0.1,0.8,0.2,1.3l0,0C555.7,81.1,555.7,81.2,555.8,81.1L555.8,81.1z"/>
		<path class="st5" d="M550.4,81.1c0.3-0.4,0.5-0.8,0.8-1.1c0.5-0.1,0.9-0.1,1.4-0.1c0.2,0,0.2,0,0.3,0.2c0.2,0.8,0.4,1.5,0.6,2.3
			c0.2,0.9,0.5,1.8,0.7,2.7c0.2,0.8,0.4,1.6,0.6,2.4c0,0.2,0.1,0.3,0.1,0.5v0.1c0,0.1,0,0.1-0.1,0.1h-0.1c-0.9-0.1-1.7-0.2-2.6-0.2
			c-0.3,0-0.5,0-0.8,0c-0.6,0-1.2,0-1.7-0.1c-1.8-0.2-3.6-0.5-5.3-1.1c-1.1-0.3-2.1-0.7-3.1-1.2c-0.6-0.3-1.1-0.6-1.6-1
			c-0.1-0.1-0.2-0.2-0.3-0.3l-0.1-0.1c-0.1-0.1-0.1-0.2,0-0.3c0.1,0,0.1-0.1,0.1-0.1c0.7-0.4,1.5-0.8,2.3-1.2c1.3-0.6,2.5-1,3.8-1.5
			c0.7-0.2,1.4-0.4,2.1-0.6c0.5-0.1,1-0.2,1.5-0.3h0.1c0.1,0,0.2,0,0.3,0.1c0.2,0.2,0.4,0.3,0.6,0.5C550.2,80.9,550.3,81,550.4,81.1
			z"/>
		<path class="st5" d="M563.2,91.4c0.1-0.1,0.1-0.3,0.1-0.4c0.9-2,1.9-4,2.8-6c0.4-0.8,0.8-1.7,1.2-2.6c0.1-0.3,0.2-0.3,0.4-0.2
			c0.7,0.4,1.5,0.7,2.2,1.1c0.1,0.1,0.2,0.1,0.2,0.3c0.1,0.6,0.3,1.1,0.4,1.7c0,0,0,0,0,0.1c0.1,0,0.2,0,0.3-0.1
			c0.4-0.1,0.8-0.3,1.2-0.4c0.1,0,0.2-0.1,0.2-0.1c0.1,0,0.2,0,0.3,0c0.3,0.2,0.6,0.4,0.9,0.5c0.4,0.3,0.8,0.5,1.2,0.7
			c0.1,0,0.1,0.1,0.2,0.1c0.1,0.1,0.1,0.2,0,0.2l-0.1,0.1c-1,1.4-2,2.9-3,4.3c-0.8,1.1-1.6,2.3-2.4,3.4c-0.3,0.4-0.3,0.3-0.5,0.1
			c-1.7-1-3.5-2-5.4-2.9c-0.1-0.1-0.2-0.1-0.3-0.2C563.4,91.5,563.3,91.4,563.2,91.4z"/>
		<path class="st5" d="M576.2,100.2c0-0.1,0.1-0.2,0.2-0.3c0.8-0.9,1.5-1.8,2.3-2.7c1.1-1.3,2.2-2.6,3.3-3.9
			c0.2-0.2,0.4-0.4,0.5-0.6c0,0,0-0.1,0.1-0.1c0.1-0.1,0.1-0.1,0.2,0c0.1,0.1,0.2,0.2,0.3,0.2c0.8,0.7,1.7,1.4,2.5,2.2
			c0.9,0.9,1.8,1.8,2.7,2.7c0,0,0,0.1,0.1,0.1c0.1,0.2,0.1,0.2,0,0.3c-0.4,0.4-0.8,0.7-1.1,1.1c-1.9,1.8-3.8,3.7-5.7,5.5l-0.1,0.1
			c-0.2,0.2-0.2,0.2-0.4,0c-0.1-0.2-0.3-0.3-0.5-0.5c-1.4-1.4-2.8-2.8-4.2-4.1C576.3,100.3,576.3,100.3,576.2,100.2L576.2,100.2z"/>
		<path class="st5" d="M579.9,91.6c0.2-0.1,0.5-0.2,0.7-0.3c0.2-0.1,0.3-0.2,0.5-0.2c0.1,0,0.2,0,0.3,0c0.2,0.2,0.4,0.4,0.6,0.6
			c0.1,0.1,0.2,0.2,0,0.3c-0.3,0.4-0.6,0.7-0.9,1.1c-0.6,0.7-1.2,1.4-1.7,2.1c-0.9,1-1.7,2-2.6,3c-0.3,0.4-0.7,0.8-1,1.2
			c-0.2,0.2-0.2,0.2-0.4,0c-1.1-0.9-2.2-1.8-3.3-2.7c-0.6-0.4-1.1-0.8-1.7-1.3c-0.1,0-0.1-0.1-0.2-0.1c-0.1-0.1-0.1-0.1,0-0.3
			c0.1-0.2,0.3-0.4,0.4-0.6c1.1-1.6,2.2-3.2,3.4-4.8c0.6-0.8,1.1-1.6,1.7-2.5c0.1-0.1,0.1-0.2,0.2-0.2c0.1-0.1,0.1-0.1,0.2,0
			c0.1,0,0.1,0.1,0.1,0.1c0.8,0.6,1.6,1.1,2.4,1.7c0.5,0.4,1.1,0.8,1.6,1.2c0.1,0,0.1,0.1,0.2,0.2c-0.1,0.2-0.1,0.4-0.2,0.6
			c-0.1,0.2-0.1,0.4-0.2,0.6C579.9,91.5,579.9,91.6,579.9,91.6L579.9,91.6L579.9,91.6z"/>
		<path class="st5" d="M586.3,111c-0.1,0-0.2-0.1-0.2-0.2c-0.4-0.5-0.7-0.9-1.1-1.4c-1-1.2-2-2.4-3-3.5c0-0.1-0.1-0.1-0.1-0.2
			c-0.1-0.1-0.1-0.1,0-0.2c0.1,0,0.1-0.1,0.1-0.1c1.5-1.4,3-2.8,4.5-4.3c0.8-0.7,1.5-1.5,2.3-2.2l0.1-0.1c0.2-0.1,0.2-0.1,0.3,0
			c0.5,0.5,0.9,1,1.4,1.5c0.1,0.1,0.1,0.2,0,0.3c-0.2,0.4-0.4,0.8-0.5,1.2c0,0.1,0,0.1-0.1,0.2c0.2,0,0.4-0.1,0.6-0.1
			c0.2,0,0.4-0.1,0.6-0.1c0.2,0,0.4-0.1,0.6-0.1c0,0.1,0.1,0.1,0.1,0.1c0.7,0.8,1.4,1.7,2,2.6c0.1,0.1,0.1,0.1,0.2,0.2
			c0.1,0.1,0,0.2,0,0.2c-0.1,0.1-0.1,0.1-0.2,0.2c-2.3,1.8-4.5,3.6-6.8,5.3c-0.2,0.2-0.4,0.3-0.7,0.5
			C586.5,110.9,586.4,110.9,586.3,111z"/>
		<path class="st5" d="M594.6,107.6c0.5,0,0.9-0.1,1.4-0.1h0.1c0.1,0,0.1,0,0.2,0.1l0.1,0.1c0.3,0.5,0.6,1,0.9,1.4
			c0.1,0.1,0.1,0.2,0,0.3c-0.2,0.3-0.5,0.6-0.7,1l0,0l0,0c0.2,0,0.4,0,0.7-0.1c0.2,0,0.4,0,0.6-0.1c0.1,0,0.1,0,0.2,0.1
			c0.2,0.3,0.4,0.7,0.6,1c0.1,0.1,0,0.2,0,0.2c-0.1,0-0.1,0.1-0.2,0.2c-1.5,1.1-3,2.2-4.5,3.3c-1,0.7-2,1.5-3,2.2c0,0-0.1,0-0.1,0.1
			c-0.1,0-0.1,0-0.2,0c0-0.1-0.1-0.1-0.1-0.2c-0.5-0.8-1-1.6-1.5-2.4c-0.7-1-1.3-1.9-2-2.9c0-0.1-0.1-0.1-0.1-0.2
			c-0.1-0.2-0.1-0.2,0-0.3c0,0,0.1,0,0.1-0.1c1.4-1.1,2.8-2.2,4.3-3.3c1.1-0.8,2.1-1.6,3.2-2.5c0.1,0,0.1-0.1,0.2-0.2
			c0.1-0.1,0.1,0,0.2,0c0,0,0,0.1,0.1,0.1c0.1,0.1,0.2,0.3,0.3,0.4s0.1,0.2,0,0.4c-0.1,0.3-0.3,0.6-0.4,0.8
			C594.7,107.3,594.6,107.4,594.6,107.6z"/>
		<path class="st5" d="M602.4,119.1c0,0.1,0,0.1-0.1,0.2c-0.1,0-0.1,0.1-0.2,0.1c-2.3,1.3-4.6,2.6-6.9,3.9c-0.3,0.2-0.6,0.3-0.8,0.5
			c-0.1,0-0.1,0.1-0.2,0.1c-0.1,0-0.2,0-0.2-0.1c-0.1-0.1-0.1-0.2-0.2-0.3c-0.9-1.8-1.8-3.6-2.8-5.3c0-0.1-0.1-0.1-0.1-0.2
			s0-0.2,0.1-0.2c0.1-0.1,0.2-0.1,0.3-0.2c1.5-1.1,3.1-2.1,4.6-3.2c0.9-0.6,1.9-1.3,2.8-2c0.1,0,0.1-0.1,0.2-0.1
			c0.1-0.1,0.2-0.1,0.3,0.1c0,0,0,0.1,0.1,0.1c0.5,0.9,1,1.8,1.4,2.8c0.6,1.2,1.1,2.4,1.7,3.5C602.4,118.9,602.4,119,602.4,119.1z"
			/>
		<path class="st5" d="M602.9,123.5c0.2,0.1,0.5,0.2,0.7,0.3c0.2,0.1,0.3,0.2,0.5,0.3c0.1,0.1,0.2,0.1,0.2,0.3
			c0.1,0.5,0.3,1,0.4,1.6v0.1c0,0.2,0,0.2-0.1,0.3c-1.2,0.6-2.2,1.4-3.2,2.3c-0.8,0.8-1.6,1.6-2.3,2.5c-0.4,0.5-0.7,1-1,1.5
			c-0.1,0.2-0.2,0.4-0.3,0.6c0,0.1,0,0.1-0.1,0.2c-0.1,0.1-0.2,0.1-0.3,0c0-0.1,0-0.1-0.1-0.2c-0.2-1.4-0.7-2.7-1.1-4.1
			c-0.5-1.5-1.1-3.1-1.8-4.6c-0.1-0.3-0.1-0.3,0.1-0.4c1.9-1.1,3.8-2.2,5.8-3.3c0.6-0.4,1.2-0.7,1.9-1.1c0.1,0,0.2-0.1,0.3-0.1
			c0.1-0.1,0.2,0,0.2,0.1c0.1,0.1,0.1,0.3,0.2,0.4c0.2,0.6,0.4,1.2,0.6,1.8c0,0.1,0,0.2,0,0.3c-0.2,0.3-0.4,0.6-0.6,1
			C602.9,123.4,602.9,123.5,602.9,123.5z"/>
		<path class="st6" d="M538.2,87.7c0,0.1,0,0.2,0,0.3C538.2,87.9,538.2,87.8,538.2,87.7z"/>
		<path class="st7" d="M555.8,81.1L555.8,81.1C555.7,81.2,555.7,81.2,555.8,81.1C555.7,81.1,555.7,81.1,555.8,81.1
			C555.7,81.1,555.7,81.1,555.8,81.1z"/>
		<path class="st8" d="M536.9,96.4L536.9,96.4L536.9,96.4z"/>
		<path class="st9" d="M535.3,100.1C535.3,100.1,535.3,100.2,535.3,100.1C535.4,100.2,535.4,100.2,535.3,100.1
			C535.3,100.2,535.3,100.1,535.3,100.1z"/>
		<path class="st10" d="M558.1,117.7C558.1,117.7,558.1,117.8,558.1,117.7C558.1,117.8,558.1,117.8,558.1,117.7
			C558.1,117.8,558.1,117.8,558.1,117.7z"/>
		<path class="st4" d="M537.3,101.8c0.1-0.3,0.2-0.7,0.3-1c0.2-0.9,0.5-1.7,0.7-2.6c0.1-0.3,0.2-0.4,0.4-0.5s0.3-0.1,0.5-0.2
			c0.6-0.1,1.2-0.2,1.7-0.1h0.1v0.1c-0.1,0.3-0.2,0.5-0.3,0.7c-0.3,0.6-0.8,1.1-1.2,1.6c-0.6,0.6-1.2,1.2-1.9,1.7
			C537.5,101.7,537.5,101.8,537.3,101.8C537.4,101.8,537.4,101.8,537.3,101.8z"/>
		<path class="st11" d="M579.9,91.6L579.9,91.6C579.8,91.6,579.9,91.6,579.9,91.6L579.9,91.6z"/>
	</g>
</g>
<g id="Layer_2_1_">
</g>
<path class="st12" d="M0,0c53,0,95,0,266,0c54,0-139,204.3-64.2,213C387.2,234.6,451,331.6,404,417c-42.7,77.8-355-22-404,33"/>
<path class="st3" d="M0,0c44,0,179.7,0,225,0c54,0-131.2,230.3-66,234c157.7,8.9,244,86.2,215,166c-17,46.9-320-18-374,17"/>
<path class="st1" d="M443.7,295.1c186.5,0,186.5,0,186.5,0"/>
<line class="st1" x1="444.5" y1="337.1" x2="631" y2="337.1"/>
<line class="st1" x1="446" y1="379.1" x2="632.5" y2="379.1"/>
<line class="st1" x1="447.8" y1="421.1" x2="634.2" y2="421.1"/>
<g>
	<g>
		<path d="M448.6,274.8h-4.9V273h12v1.8h-5v14.4h-2.1V274.8z"/>
		<path d="M467.9,283.3c0,4.3-3,6.2-5.8,6.2c-3.1,0-5.6-2.3-5.6-6c0-3.9,2.6-6.2,5.8-6.2C465.6,277.3,467.9,279.8,467.9,283.3z
			 M458.7,283.4c0,2.5,1.5,4.5,3.5,4.5c2,0,3.5-1.9,3.5-4.5c0-2-1-4.4-3.5-4.4C459.7,278.9,458.7,281.2,458.7,283.4z"/>
		<path d="M470,279.5c0-0.9,0.6-1.5,1.4-1.5c0.8,0,1.4,0.6,1.4,1.5c0,0.8-0.6,1.5-1.4,1.5C470.6,281,470,280.3,470,279.5z M470,288
			c0-0.9,0.6-1.5,1.4-1.5c0.8,0,1.4,0.6,1.4,1.5c0,0.8-0.6,1.5-1.4,1.5C470.6,289.5,470,288.8,470,288z"/>
	</g>
</g>
<g>
	<g>
		<path d="M465.9,355.6L465.9,355.6l-2.6,1.4l-0.2-0.9l3.2-1.8h0.9l-3,15.6h-1L465.9,355.6z"/>
		<path d="M479.8,358.6c0,4.6-2.1,11.6-6.2,11.6c-2.5,0-3.2-2.4-3.2-5c0-4.8,2.4-11.1,6.2-11.1C479.2,354.2,479.8,356.6,479.8,358.6
			z M471.5,365.3c0,2,0.4,4,2.3,4c3.2,0,4.9-7.2,4.9-10.6c0-1.3-0.2-3.6-2.2-3.6C473.5,355.1,471.5,361,471.5,365.3z"/>
		<path d="M490.1,358.6c0,4.6-2.1,11.6-6.2,11.6c-2.5,0-3.2-2.4-3.2-5c0-4.8,2.4-11.1,6.2-11.1C489.5,354.2,490.1,356.6,490.1,358.6
			z M481.8,365.3c0,2,0.4,4,2.3,4c3.2,0,4.9-7.2,4.9-10.6c0-1.3-0.2-3.6-2.2-3.6C483.9,355.1,481.8,361,481.8,365.3z"/>
		<path d="M494.9,370l3.1-16.2h1l3.8,10.7c0.6,1.6,0.9,2.8,1.2,4l0,0c0.1-1.4,0.3-2.6,0.6-4.6l1.9-10.2h1l-3.1,16.2h-1l-3.8-10.5
			c-0.7-1.7-1-2.9-1.2-4.3l-0.1,0c-0.2,1.5-0.4,2.9-0.7,4.7l-1.9,10.1H494.9z"/>
		<path d="M512.4,355.5l-0.6,3h2.7l-0.2,0.9h-2.7l-1.3,6.9c-0.1,0.8-0.2,1.4-0.2,2c0,0.7,0.3,1.1,1,1.1c0.4,0,0.6,0,0.8-0.1l0.1,0.8
			c-0.3,0.1-0.7,0.2-1.1,0.2c-1.4,0-1.9-0.9-1.9-1.9c0-0.6,0.1-1.2,0.3-2.1l1.3-6.9H509l0.2-0.9h1.7l0.5-2.7L512.4,355.5z"/>
		<path d="M514.7,370l3.2-16.9h1l-1.5,7.6h0c1-1.5,2.3-2.4,3.9-2.4c1.1,0,2.6,0.7,2.6,2.8c0,0.6-0.1,1.2-0.2,1.8l-1.4,7.1h-1
			l1.4-7.2c0.1-0.4,0.2-0.9,0.2-1.7c0-1.1-0.5-2-1.9-2c-1.7,0-3.7,2-4.2,4.6l-1.2,6.2H514.7z"/>
		<path d="M538.1,361.9h-5.4l-1.3,7.2h6.2l-0.2,0.9h-7.2l3.1-16.2h6.8l-0.2,0.9H534l-1.2,6.3h5.4L538.1,361.9z"/>
		<path d="M541.4,358.5l1,7.4c0.2,1.2,0.3,2.1,0.3,2.6h0.1c0.2-0.5,0.5-1.3,1.1-2.5l3.9-7.6h1.1l-6,11.5h-1l-1.6-11.5H541.4z"/>
		<path d="M555.9,369.4c-0.6,0.4-1.7,0.9-3.1,0.9c-2.7,0-3.6-2.1-3.6-4.3c0-3.3,2.3-7.7,5.6-7.7c1.9,0,2.7,1.2,2.7,2.5
			c0,2.9-3.4,3.7-7.1,3.7c-0.1,0.5-0.2,2,0.1,2.9c0.4,1.3,1.3,1.9,2.5,1.9c1.3,0,2.1-0.4,2.7-0.8L555.9,369.4z M554.6,359.2
			c-1.8,0-3.4,1.9-4.1,4.4c3,0,5.9-0.5,5.9-2.8C556.4,359.7,555.6,359.2,554.6,359.2z"/>
		<path d="M558.4,370l1.5-8.1c0.3-1.4,0.4-2.5,0.5-3.4h1l-0.3,2.3h0c1-1.7,2.4-2.6,4-2.6c1.1,0,2.6,0.7,2.6,2.9
			c0,0.6-0.1,1.1-0.2,1.8l-1.3,7.1h-1l1.3-7.1c0.1-0.5,0.2-1.1,0.2-1.7c0-1.2-0.5-2.1-1.9-2.1c-1.5,0-3.7,1.9-4.2,4.7l-1.1,6.1
			H558.4z"/>
		<path d="M573.9,355.5l-0.6,3h2.7l-0.2,0.9h-2.7l-1.3,6.9c-0.1,0.8-0.2,1.4-0.2,2c0,0.7,0.3,1.1,1,1.1c0.4,0,0.6,0,0.8-0.1l0.1,0.8
			c-0.3,0.1-0.7,0.2-1.1,0.2c-1.4,0-1.9-0.9-1.9-1.9c0-0.6,0.1-1.2,0.3-2.1l1.3-6.9h-1.7l0.2-0.9h1.7l0.5-2.7L573.9,355.5z"/>
		<path d="M582.6,370l-0.7-16.2h1l0.4,11.2c0.1,2,0,2.7,0,3.5h0.1c0.3-0.8,0.6-1.6,1.4-3.4l5.1-11.3h1l0.4,10.7c0.1,2,0.1,3.1,0.1,4
			h0.1c0.4-1.2,0.8-2.2,1.4-3.5l5-11.2h1.1l-7.3,16.2h-1l-0.4-11c-0.1-1.6-0.1-2.2,0-3.9h-0.1c-0.5,1.4-0.8,2.4-1.3,3.5l-5.3,11.5
			H582.6z"/>
		<path d="M605.2,370c0-0.7,0.1-1.8,0.3-3.1h0c-1.3,2.5-2.8,3.3-4.3,3.3c-1.8,0-2.8-1.4-2.8-3.5c0-3.9,2.8-8.5,7.3-8.5
			c0.8,0,1.7,0.1,2.3,0.3l-1.2,6.2c-0.4,2.1-0.6,4-0.5,5.2H605.2z M606.8,359.3c-0.3-0.1-0.7-0.2-1.4-0.2c-3.3,0-5.9,3.7-5.9,7.3
			c0,1.5,0.4,2.8,2,2.8c1.9,0,4-2.8,4.5-5.8L606.8,359.3z"/>
		<path d="M610.9,358.5l1.2,7c0.2,1.3,0.4,2.1,0.5,3.1h0.1c0.3-0.8,0.7-1.7,1.3-2.9l3.3-7.2h1.1l-4.3,9.2c-1,2.3-2.1,4.3-3.7,5.8
			c-1.1,1.1-2.2,1.6-2.7,1.7l-0.3-0.9c0.5-0.2,1.3-0.5,2.1-1.2c0.8-0.6,1.7-1.8,2.3-3c0.1-0.2,0.1-0.4,0.1-0.6l-1.9-11H610.9z"/>
	</g>
</g>
<g>
	<g>
		<path d="M475.3,397.5l-3.1,16.2h-1l3.1-16.2H475.3z"/>
		<path d="M475.8,413.7l1.5-7.8c0.3-1.5,0.4-2.8,0.5-3.8h1c-0.1,0.8-0.2,1.5-0.3,2.5h0.1c0.7-1.5,1.8-2.7,3.3-2.7c0.1,0,0.3,0,0.4,0
			L482,403c-0.1,0-0.2,0-0.4,0c-1.5,0-3.2,2.3-3.7,4.8l-1.1,5.9H475.8z"/>
		<path d="M483.9,402.2l1,7.4c0.2,1.2,0.3,2.1,0.3,2.6h0.1c0.2-0.5,0.5-1.3,1.1-2.5l3.9-7.6h1.1l-6,11.5h-1l-1.6-11.5H483.9z"/>
		<path d="M491.5,413.7l2.2-11.5h1l-2.2,11.5H491.5z M494,399c0-0.5,0.4-0.9,0.9-0.9c0.5,0,0.8,0.4,0.8,0.9c0,0.5-0.4,0.9-0.9,0.9
			C494.3,399.9,494,399.5,494,399z"/>
		<path d="M496.1,413.7l1.5-8.1c0.3-1.4,0.4-2.5,0.5-3.4h1l-0.3,2.3h0c1-1.7,2.4-2.6,4-2.6c1.1,0,2.6,0.7,2.6,2.9
			c0,0.6-0.1,1.1-0.2,1.8l-1.3,7.1h-1l1.3-7.1c0.1-0.5,0.2-1.1,0.2-1.7c0-1.2-0.5-2.1-1.9-2.1c-1.5,0-3.7,1.9-4.2,4.7l-1.1,6.1
			H496.1z"/>
		<path d="M514.3,413c-0.6,0.4-1.7,0.9-3.1,0.9c-2.7,0-3.6-2.1-3.6-4.3c0-3.3,2.3-7.7,5.6-7.7c1.9,0,2.7,1.2,2.7,2.5
			c0,2.9-3.4,3.7-7.1,3.7c-0.1,0.5-0.2,2,0.1,2.9c0.4,1.3,1.3,1.9,2.5,1.9c1.3,0,2.1-0.4,2.7-0.8L514.3,413z M512.9,402.8
			c-1.8,0-3.4,1.9-4.1,4.4c3,0,5.9-0.5,5.9-2.8C514.7,403.4,514,402.8,512.9,402.8z"/>
		<path d="M515.2,416.7c0.5-1,1.6-3.6,2-5.1l1.5-0.2c-0.7,1.8-2.1,4.5-2.6,5.2L515.2,416.7z"/>
		<path d="M534.5,413.2c-0.8,0.4-2.1,0.7-3.5,0.7c-3.6,0-5.5-2.6-5.5-6.3c0-2.7,0.9-5.9,3.1-8c1.6-1.5,3.5-2.3,5.6-2.3
			c1.5,0,2.5,0.4,2.9,0.7l-0.4,0.9c-0.6-0.4-1.5-0.6-2.7-0.6c-1.7,0-3.4,0.7-4.6,2c-1.6,1.7-2.7,4.4-2.7,7.1c0,3.1,1.1,5.7,4.6,5.7
			c1.1,0,2.3-0.2,3.1-0.7L534.5,413.2z"/>
		<path d="M539.3,408l-2.8,5.7h-1.1l8.1-16.2h1l1.9,16.2h-1l-0.7-5.7H539.3z M544.7,407.1L544,402c-0.1-0.9-0.2-2.1-0.2-3.1h-0.1
			c-0.4,1-0.8,2-1.4,3.1l-2.6,5.2H544.7z"/>
		<path d="M553.4,412.9c0.3,0,0.8-0.1,1.3-0.2c1-0.2,2.2-0.8,3.2-1.8c1.2-1,2.3-2.7,3-5h-0.1c-1,1.2-2.3,1.8-3.5,1.8
			c-2.4,0-3.3-2-3.3-3.9c0-2.9,2.2-6.2,5.1-6.2c2.4,0,3.4,2.1,3.4,4.4c0,3.7-2,7.6-3.8,9.3c-1.2,1.1-2.6,1.9-3.8,2.2
			c-0.5,0.1-1,0.2-1.5,0.2L553.4,412.9z M555,404c0,1.9,0.8,3,2.4,3c1.3,0,2.6-0.8,3.4-2.1c0.1-0.2,0.2-0.4,0.3-0.6
			c0.1-0.5,0.2-1.2,0.2-2c0-2-0.6-3.4-2.4-3.4C556.7,398.8,555,401.5,555,404z"/>
		<path d="M562.4,413.7l0.1-0.7l1.6-1.6c4-3.7,7-6.9,7-10c0-1.3-0.6-2.6-2.4-2.6c-1.3,0-2.3,0.7-2.8,1.2l-0.4-0.8
			c0.8-0.7,2.1-1.3,3.4-1.3c2.5,0,3.4,1.8,3.4,3.5c0,3.5-3.5,7.1-7.3,10.5l-1,0.9l0,0h6.5l-0.2,0.9H562.4z"/>
		<path d="M582.7,398.8c-0.3,0-0.7,0-1.1,0.1c-2.6,0.5-5.3,2.9-6.5,6.8h0c0.9-1.3,2.4-2.2,3.8-2.2c2.3,0,3.3,1.8,3.3,4
			c0,2.7-2,6.3-5,6.3c-2.5,0-3.7-2-3.7-4.8c0-3.5,1.8-7,3.7-8.8c1.5-1.5,3.2-2.2,4.6-2.4c0.4-0.1,0.7-0.1,1-0.1L582.7,398.8z
			 M581.1,407.6c0-2.1-0.9-3.1-2.5-3.1c-1.2,0-2.6,0.9-3.5,2.4c-0.1,0.2-0.2,0.4-0.3,0.7c-0.1,0.5-0.2,1-0.2,1.7
			c0,2.2,0.9,3.7,2.7,3.7C579.6,413,581.1,410.1,581.1,407.6z"/>
		<path d="M589.8,399.3L589.8,399.3l-2.6,1.4l-0.2-0.9l3.2-1.8h0.9l-3,15.6h-1L589.8,399.3z"/>
		<path d="M603.5,401c0,2.1-1.4,3.5-3.1,4.4v0.1c1.5,0.9,2.3,2.3,2.3,3.9c0,2.7-2.2,4.5-4.7,4.5c-2.4,0-3.9-1.6-3.9-3.7
			c0-2.6,1.9-4.2,3.7-5v-0.1c-1.3-1-1.7-2-1.7-3.2c0-2.2,1.8-4.2,4.2-4.2C602.3,397.8,603.5,399.3,603.5,401z M601.6,409.4
			c0-1.7-0.9-2.8-2.8-3.6c-1.7,0.5-3.7,2-3.7,4.3c0,1.5,0.9,2.9,2.9,2.9C600.1,413,601.6,411.5,601.6,409.4z M597,401.9
			c0,1.4,0.7,2.3,2.3,3c1.8-0.7,3.1-2.1,3.1-3.7c0-1.2-0.5-2.5-2.3-2.5C598.3,398.7,597,400.2,597,401.9z"/>
	</g>
</g>
</svg>
