<?xml version="1.0" encoding="utf-8"?>
<!-- Generator: Adobe Illustrator 24.0.2, SVG Export Plug-In . SVG Version: 6.00 Build 0)  -->
<svg version="1.1" id="Layer_1" xmlns="http://www.w3.org/2000/svg" xmlns:xlink="http://www.w3.org/1999/xlink" x="0px" y="0px"
	 viewBox="0 0 500 500" style="enable-background:new 0 0 500 500;" xml:space="preserve">
<style type="text/css">
	.st0{fill:#344A6F;}
	.st1{fill:#FFFFFF;}
	.st2{opacity:0.3;}
</style>
<path class="st0" d="M249.2,124.9c36.5-25.9,46.3,41,102.2,46.5c41.3,4.1,57.1,36.2,42.6,73c-30.6,77.8-89.2,177-144.9,119.5
	c-30-31-66.6,25.6-96.4,6.4c-78-50.5-43.9-79.4-48.4-125.8C97.1,170.2,205.5,156,249.2,124.9z"/>
<g>
	<g>
		<path class="st1" d="M142.8,234.5h3.8v13.7h6.7v3.2h-10.5V234.5z"/>
		<path class="st1" d="M167.5,245.2c0,4.5-3.2,6.5-6.5,6.5c-3.6,0-6.3-2.4-6.3-6.3c0-4,2.6-6.5,6.6-6.5
			C165,238.9,167.5,241.4,167.5,245.2z M158.7,245.3c0,2.1,0.9,3.7,2.5,3.7c1.5,0,2.4-1.5,2.4-3.7c0-1.8-0.7-3.7-2.4-3.7
			C159.4,241.6,158.7,243.5,158.7,245.3z"/>
		<path class="st1" d="M182,245.2c0,4.5-3.2,6.5-6.5,6.5c-3.6,0-6.3-2.4-6.3-6.3c0-4,2.6-6.5,6.6-6.5
			C179.5,238.9,182,241.4,182,245.2z M173.1,245.3c0,2.1,0.9,3.7,2.5,3.7c1.5,0,2.4-1.5,2.4-3.7c0-1.8-0.7-3.7-2.4-3.7
			C173.8,241.6,173.1,243.5,173.1,245.3z"/>
		<path class="st1" d="M188.2,244.3L188.2,244.3c0.3-0.5,0.6-1,0.9-1.5l2.5-3.7h4.6l-4.4,5l5,7.3h-4.7l-3-5l-1,1.2v3.8h-3.8v-17.8
			h3.8V244.3z"/>
		<path class="st1" d="M201.9,235.7c0,1.1-0.8,1.9-2.1,1.9c-1.2,0-2-0.8-2-1.9c0-1.1,0.8-1.9,2-1.9
			C201.1,233.8,201.9,234.6,201.9,235.7z M198,251.4v-12.3h3.8v12.3H198z"/>
		<path class="st1" d="M204.8,243.1c0-1.5,0-2.8-0.1-3.9h3.3l0.2,1.7h0.1c0.5-0.8,1.7-2,3.8-2c2.5,0,4.4,1.7,4.4,5.3v7.3h-3.8v-6.8
			c0-1.6-0.6-2.7-1.9-2.7c-1.1,0-1.7,0.7-1.9,1.4c-0.1,0.2-0.1,0.6-0.1,0.9v7.1h-3.8V243.1z"/>
		<path class="st1" d="M231.3,239.1c-0.1,0.8-0.1,1.8-0.1,3.7v6.8c0,2.4-0.5,4.3-1.9,5.5c-1.3,1.2-3.2,1.5-5,1.5
			c-1.6,0-3.3-0.3-4.4-0.9l0.8-2.9c0.8,0.4,2.1,0.9,3.6,0.9c1.8,0,3.2-1,3.2-3.2v-0.8h-0.1c-0.7,1-1.9,1.6-3.3,1.6
			c-3,0-5.2-2.5-5.2-6c0-4,2.6-6.5,5.6-6.5c1.7,0,2.7,0.7,3.4,1.7h0.1l0.1-1.5H231.3z M227.3,244.1c0-0.2,0-0.5-0.1-0.7
			c-0.3-1-1-1.7-2.1-1.7c-1.4,0-2.5,1.3-2.5,3.5c0,1.8,0.9,3.3,2.5,3.3c1,0,1.8-0.7,2-1.5c0.1-0.3,0.1-0.7,0.1-1V244.1z"/>
		<path class="st1" d="M239.7,251.4V242h-1.6v-2.8h1.6v-0.5c0-1.5,0.5-3.1,1.5-4.1c1-0.9,2.3-1.2,3.4-1.2c0.8,0,1.5,0.1,2,0.3
			l-0.2,2.9c-0.3-0.1-0.7-0.2-1.2-0.2c-1.3,0-1.8,1-1.8,2.2v0.6h2.5v2.8h-2.4v9.5H239.7z"/>
		<path class="st1" d="M260,245.2c0,4.5-3.2,6.5-6.5,6.5c-3.6,0-6.3-2.4-6.3-6.3c0-4,2.6-6.5,6.6-6.5
			C257.5,238.9,260,241.4,260,245.2z M251.1,245.3c0,2.1,0.9,3.7,2.5,3.7c1.5,0,2.4-1.5,2.4-3.7c0-1.8-0.7-3.7-2.4-3.7
			C251.8,241.6,251.1,243.5,251.1,245.3z"/>
		<path class="st1" d="M262.3,243.2c0-1.8,0-3-0.1-4h3.3l0.1,2.3h0.1c0.6-1.8,2.1-2.5,3.3-2.5c0.4,0,0.5,0,0.8,0.1v3.6
			c-0.3-0.1-0.6-0.1-1-0.1c-1.4,0-2.4,0.7-2.6,1.9c0,0.2-0.1,0.5-0.1,0.8v6.2h-3.8V243.2z"/>
		<path class="st1" d="M283.9,251.4l-0.2-1.2h-0.1c-0.8,1-2.1,1.5-3.5,1.5c-2.5,0-4-1.8-4-3.8c0-3.2,2.9-4.7,7.2-4.7v-0.2
			c0-0.7-0.4-1.6-2.2-1.6c-1.3,0-2.6,0.4-3.4,0.9L277,240c0.9-0.5,2.5-1.1,4.8-1.1c4.1,0,5.4,2.4,5.4,5.3v4.3c0,1.2,0.1,2.3,0.2,3
			H283.9z M283.4,245.6c-2,0-3.6,0.5-3.6,1.9c0,1,0.6,1.5,1.5,1.5c0.9,0,1.7-0.6,2-1.4c0.1-0.2,0.1-0.4,0.1-0.7V245.6z"/>
		<path class="st1" d="M295.2,243.3c0-1.6,0-3-0.1-4.1h3.3l0.2,1.7h0c0.9-1.3,2.3-2,4.1-2c2.7,0,5.1,2.3,5.1,6.3
			c0,4.5-2.9,6.6-5.6,6.6c-1.5,0-2.6-0.6-3.2-1.4h0v6.1h-3.8V243.3z M299,246.2c0,0.3,0,0.6,0.1,0.8c0.2,1,1.1,1.8,2.2,1.8
			c1.6,0,2.6-1.4,2.6-3.5c0-2-0.9-3.4-2.6-3.4c-1.1,0-2.1,0.8-2.3,1.9c-0.1,0.2-0.1,0.5-0.1,0.7V246.2z"/>
		<path class="st1" d="M310.2,233.6h3.8v17.8h-3.8V233.6z"/>
		<path class="st1" d="M324.1,251.4l-0.2-1.2h-0.1c-0.8,1-2.1,1.5-3.5,1.5c-2.5,0-4-1.8-4-3.8c0-3.2,2.9-4.7,7.2-4.7v-0.2
			c0-0.7-0.4-1.6-2.2-1.6c-1.3,0-2.6,0.4-3.4,0.9l-0.7-2.4c0.9-0.5,2.5-1.1,4.8-1.1c4.1,0,5.4,2.4,5.4,5.3v4.3c0,1.2,0.1,2.3,0.2,3
			H324.1z M323.6,245.6c-2,0-3.6,0.5-3.6,1.9c0,1,0.6,1.5,1.5,1.5c0.9,0,1.7-0.6,2-1.4c0.1-0.2,0.1-0.4,0.1-0.7V245.6z"/>
		<path class="st1" d="M339.6,251.1c-0.7,0.3-2,0.6-3.4,0.6c-4,0-6.5-2.4-6.5-6.3c0-3.6,2.5-6.5,7-6.5c1,0,2.1,0.2,2.9,0.5l-0.6,2.8
			c-0.5-0.2-1.1-0.4-2.1-0.4c-2,0-3.3,1.4-3.3,3.4c0,2.3,1.5,3.5,3.4,3.5c0.9,0,1.6-0.2,2.2-0.4L339.6,251.1z"/>
		<path class="st1" d="M344.6,246.5c0.1,1.6,1.7,2.3,3.5,2.3c1.3,0,2.3-0.2,3.4-0.5l0.5,2.6c-1.3,0.5-2.8,0.8-4.4,0.8
			c-4.2,0-6.5-2.4-6.5-6.2c0-3.1,1.9-6.6,6.2-6.6c4,0,5.5,3.1,5.5,6.1c0,0.7-0.1,1.2-0.1,1.5H344.6z M349.1,243.9
			c0-0.9-0.4-2.5-2.1-2.5c-1.6,0-2.3,1.5-2.4,2.5H349.1z"/>
		<path class="st1" d="M209.7,265.7v3.5h2.7v2.8h-2.7v4.4c0,1.5,0.4,2.2,1.5,2.2c0.5,0,0.9-0.1,1.1-0.1l0,2.9
			c-0.5,0.2-1.4,0.3-2.5,0.3c-1.2,0-2.3-0.4-2.9-1.1c-0.7-0.7-1.1-1.9-1.1-3.6v-5h-1.6v-2.8h1.6v-2.6L209.7,265.7z"/>
		<path class="st1" d="M226.8,275.3c0,4.5-3.2,6.5-6.5,6.5c-3.6,0-6.3-2.4-6.3-6.3c0-4,2.6-6.5,6.6-6.5
			C224.3,269,226.8,271.6,226.8,275.3z M217.9,275.4c0,2.1,0.9,3.7,2.5,3.7c1.5,0,2.4-1.5,2.4-3.7c0-1.8-0.7-3.7-2.4-3.7
			C218.6,271.7,217.9,273.6,217.9,275.4z"/>
		<path class="st1" d="M243.4,281.2c-0.7,0.3-2,0.6-3.4,0.6c-4,0-6.5-2.4-6.5-6.3c0-3.6,2.5-6.5,7-6.5c1,0,2.1,0.2,2.9,0.5l-0.6,2.8
			c-0.5-0.2-1.1-0.4-2.1-0.4c-2,0-3.3,1.4-3.3,3.4c0,2.3,1.5,3.5,3.4,3.5c0.9,0,1.6-0.2,2.2-0.4L243.4,281.2z"/>
		<path class="st1" d="M245.5,263.7h3.8v7h0.1c0.4-0.5,0.9-0.9,1.5-1.3c0.6-0.3,1.3-0.5,2-0.5c2.4,0,4.3,1.7,4.3,5.4v7.2h-3.8v-6.7
			c0-1.6-0.6-2.7-2-2.7c-1,0-1.6,0.7-1.9,1.3c-0.1,0.2-0.1,0.6-0.1,0.8v7.3h-3.8V263.7z"/>
		<path class="st1" d="M264.2,265.8c0,1.1-0.8,1.9-2.1,1.9c-1.2,0-2-0.8-2-1.9c0-1.1,0.8-1.9,2-1.9
			C263.4,263.9,264.1,264.7,264.2,265.8z M260.2,281.5v-12.3h3.8v12.3H260.2z"/>
		<path class="st1" d="M267.1,263.7h3.8v17.8h-3.8V263.7z"/>
		<path class="st1" d="M274,263.7h3.8v17.8H274V263.7z"/>
		<path class="st1" d="M282.8,276l0-0.6c-0.1-1.3,0.3-2.6,1.5-3.9c0.8-1,1.5-1.8,1.5-2.6c0-0.9-0.6-1.5-1.8-1.5
			c-0.8,0-1.8,0.3-2.5,0.7l-0.8-2.7c0.9-0.5,2.4-1,4.2-1c3.3,0,4.8,1.8,4.8,3.9c0,1.9-1.2,3.2-2.2,4.2c-0.9,1-1.3,2-1.3,3.1l0,0.4
			H282.8z M282.2,279.5c0-1.4,0.9-2.3,2.2-2.3c1.3,0,2.2,0.9,2.2,2.3c0,1.3-0.9,2.3-2.2,2.3C283.1,281.8,282.2,280.8,282.2,279.5z"
			/>
	</g>
</g>
<ellipse class="st2" cx="234.1" cy="408.5" rx="81.6" ry="9.1"/>
</svg>
