<?xml version="1.0" encoding="utf-8"?>
<!-- Generator: Adobe Illustrator 24.0.2, SVG Export Plug-In . SVG Version: 6.00 Build 0)  -->
<svg version="1.1" id="Layer_1" xmlns="http://www.w3.org/2000/svg" xmlns:xlink="http://www.w3.org/1999/xlink" x="0px" y="0px"
	 viewBox="0 0 250 250" style="enable-background:new 0 0 250 250;" xml:space="preserve">
<style type="text/css">
	.st0{fill:#FFFFFF;}
</style>
<path class="st0" d="M213.2,138.9h-175c-4.6,0-8.2-3.6-8.2-8.2v-11.5c0-4.6,3.6-8.2,8.2-8.2h175c4.6,0,8.2,3.6,8.2,8.2v11.3
	C221.4,135.3,217.6,138.9,213.2,138.9z"/>
<path class="st0" d="M211.9,80.1h-175c-4.6,0-8.2-3.6-8.2-8.2V60.4c0-4.6,3.6-8.2,8.2-8.2h175c4.6,0,8.2,3.6,8.2,8.2v11.3
	C220,76.5,216.3,80.1,211.9,80.1z"/>
<path class="st0" d="M213.2,197.8h-175c-4.6,0-8.2-3.6-8.2-8.2v-11.5c0-4.6,3.6-8.2,8.2-8.2h175c4.6,0,8.2,3.6,8.2,8.2v11.3
	C221.4,194.1,217.6,197.8,213.2,197.8z"/>
</svg>
