<?xml version="1.0" encoding="utf-8"?>
<!-- Generator: Adobe Illustrator 24.0.2, SVG Export Plug-In . SVG Version: 6.00 Build 0)  -->
<svg version="1.1" xmlns="http://www.w3.org/2000/svg" xmlns:xlink="http://www.w3.org/1999/xlink" x="0px" y="0px"
	 viewBox="0 0 1200 1200" style="enable-background:new 0 0 1200 1200;" xml:space="preserve">
<style type="text/css">
	.st0{fill:none;}
	.st1{fill:#FFFFFF;}
	.st2{fill:#E9D598;}
	.st3{fill:#FFE481;}
	.st4{fill:#E6CD7A;}
	.st5{fill:#D9B53D;}
	.st6{fill:#DDBD50;}
</style>
<g id="Layer_1">
	<g>
		<path class="st0" d="M1192.1,1158.9c-429.2,0-858.5,0-1287.7,0c0-429.2,0-858.5,0-1287.7c429.2,0,858.5,0,1287.7,0
			C1192.1,300.5,1192.1,729.7,1192.1,1158.9z M775.9,395.6c-0.1-0.1-0.3-0.3-0.3-0.3c0.1-0.5,0.1-1.1,0.4-1.5
			c1.1-2.3,2.1-4.4,3.1-6.7c1.2-2.5,2.4-5.2,3.5-7.6c-0.3-1.3-0.9-2-1.6-2.7c-5.9-5.9-11.7-11.9-17.7-17.7
			c-9-8.5-18.1-16.6-27.2-24.9c-0.5-0.5-1.1-1.1-1.7-1.5c-0.9-0.7-1.7-0.7-2.5,0.1c-0.8,0.8-1.6,1.7-2.4,2.5
			c-8.3,9.3-16.5,18.6-24.8,27.9c-16.4,18.2-32.7,36.4-49.1,54.5c-1.9,2.1-3.9,4.3-5.8,6.4c-1.2,1.5-1.2,2,0.1,3.4
			c0.7,0.7,1.3,1.3,2,2c6.3,6,12.6,11.9,18.8,18.1c12.7,12.5,25.1,25.4,37,38.5c2.5,2.8,2.8,2.8,5.6,0.3c4.7-4.3,9.3-8.6,13.9-12.9
			c12.2-11.3,24.4-22.5,36.6-33.8c8.3-7.6,16.5-15.3,24.8-22.9c4.4-4,8.9-8.2,13.1-12.2c1.9-1.7,2-2.4,0.4-4.3
			c-2.3-2.8-4.8-5.5-7.1-8.3c-0.9-1.2-2-1.3-3.5-0.9c-2.3,0.7-4.4,1.5-6.7,2.1C781.9,394,779,394.8,775.9,395.6z M492.1,227.3
			c-0.3-5.4-0.5-10.7-0.8-16.1c0-0.7,0-1.3-0.1-1.9c-0.1-1.2-0.7-1.7-1.9-1.9c-1.3-0.1-2.5-0.3-3.9-0.3c-5.5-0.4-10.9-0.5-16.4,0.1
			c-1.7,0.3-2.3,0.8-2,2.5c0.3,2,0.7,4,0.9,6c1.3,9.1,2.7,18.2,4.2,27.4c1.9,11.8,3.8,23.7,5.5,35.5c1.9,11.9,3.5,24,5.5,35.9
			c0.7,3.9-0.3,3.8,4.4,5.2c12.3,3.5,24.5,7.8,36.5,12.6c13.8,5.5,27.4,11.7,40.8,18.4c0.9,0.5,1.9,1.2,3,1.1
			c1.1-0.4,1.3-1.3,1.9-2.1c3-4.7,5.8-9.3,8.6-13.9c15.8-25.6,31.5-51.4,47.3-77c0.5-0.8,1.1-1.6,1.5-2.5c0.5-1.1,0.4-1.9-0.5-2.5
			c-1.7-1.3-3.6-2.7-5.5-3.9c-1.2-0.8-2.5-1.6-3.8-2.4c-0.9-0.5-1.9-0.4-2.7,0.3c-0.5,0.5-1.1,0.9-1.7,1.5
			c-4.2,3.6-8.3,7.1-12.5,10.7c-0.4,0.3-0.8,0.5-1.6,1.1c0.3-1.1,0.4-1.7,0.5-2.3c1.5-4.6,3-9.1,4.6-13.7c1.5-4.6,1.3-4.2-2.5-6
			c-12.3-6-25.1-11-38.1-15.3c-17-5.6-34.3-10.2-51.9-13.4c-1.7-0.3-3.4-0.5-5.1-0.8c-2.8-0.4-3-0.3-4.3,2.1c0,0.1-0.1,0.1-0.1,0.3
			c-2.8,5.2-5.5,10.5-8.3,15.7C492.9,227.4,492.5,227.3,492.1,227.3z M493.9,502.1c0.4,0,0.8,0.1,1.2,0.1c1.2,5,2.1,10.1,2.4,15.2
			c0.7,9.1,0.3,18.2-1.7,27.2c-4.8,21.9-16,39.8-34.1,53.3c-2.8,2.1-5.9,3.9-8.9,5.8c-1.7,1.1-1.9,1.6-1.2,3.5
			c0.5,1.5,1.1,3,1.6,4.6c2.5,7.8,4.6,15.7,6.2,23.6c2.3,11.1,3.8,22.4,4.7,33.7c0.4,5.5,0.5,11.1,0.8,16.6c0,0.3,0,0.5,0.1,0.7
			c0,3.8,0,7.5,0,11.3c0.1,10.5-0.5,21.1-1.6,31.5c-0.9,9.7-2.4,19.3-4.4,29c-2.7,13.1-6.3,26-11.5,38.5c-1.7,4.3-3.9,8.3-5.9,12.5
			c-0.5,1.1-0.7,2,0.7,3c0.9-0.1,1.9-0.3,3-0.7c13.8-4.2,27.9-7.8,42-10.7c10.3-2.1,20.8-4.2,31.4-5.5c7.4-0.9,14.6-1.9,22-2.7
			c6.3-0.7,12.6-1.2,18.9-1.6c6.8-0.4,13.7-0.7,20.5-0.8c12.5-0.3,25.1-0.3,37.6,0.4c10.6,0.5,21.2,1.5,31.7,2.7
			c10.6,1.2,21.2,2.8,31.8,4.8c22.8,4.3,45.1,10.2,66.9,18c32.3,11.4,62.8,26.4,91.1,45.9c19,13.1,36.8,27.9,52.7,44.7
			c9.7,10.1,18.5,20.8,26.7,32.2c0.4,0.5,0.7,1.1,1.2,1.5c0.4,0.3,0.9,0.4,1.5,0.4c0.7-0.1,1.1-0.7,1.1-1.3c0-0.8,0-1.5-0.1-2.3
			c-1.1-8.2-2-16.4-3.2-24.5c-2.5-16.5-6.2-32.9-10.3-49.1c-6.8-26.6-15.4-52.7-25.4-78.3c-13-33.7-28-66.3-44.9-98.2
			c-15.7-29.6-32.9-58.5-51.5-86.5c-17.7-26.7-36.6-52.3-57-77.1c-14.4-17.6-29.5-34.6-45.3-51c-6.4-6.7-13.1-13.1-19.9-19.7
			c-9-8.9-18.5-17.3-28.2-25.5c-23.7-20.3-48.8-38.5-76.2-53.5c-0.7-0.4-1.2-0.8-2-1.3c0.5-1.2,1.1-2.3,1.6-3.2c0.9-1.9,2-3.8,3-5.8
			c0.5-1.1,0.3-1.9-0.7-2.5c-0.4-0.3-0.9-0.5-1.3-0.8c-6.2-3.2-12.3-6.6-18.6-9.5c-26.4-12.2-53.7-21.5-82.1-27.6
			c-6.6-1.5-13.3-2.5-20-3.4c-5.5-0.7-11.1-1.2-16.5-2.1c-15.8-2.7-31.4-6.6-46.8-11.4c-19.9-6.3-39.2-13.9-57.5-23.9
			c-9.5-5.1-18.8-10.9-27.2-17.7c-6.3-5.1-12.2-10.7-16.5-17.8c-0.3-0.4-0.5-0.7-0.8-0.9c-0.5-0.5-1.6-0.5-2,0.1s-0.8,1.5-1.2,2.3
			c-3,7.1-4.8,14.5-5.6,22c-0.4,4-0.7,8.2-0.9,12.2c-0.7,1.1-0.7,2.3,0,3.4c0,0.4,0.1,0.8,0.1,1.3c0.1,12.1,2.4,23.9,6.7,35.1
			c4,10.6,9.7,20.3,18,28.2c5.8,5.5,12.3,9.7,20.1,11.4c0.5,0.1,0.9,0.4,1.6,0.7c-0.7,0.5-1.1,1.1-1.6,1.3c-3,1.9-5.8,3.8-8.7,5.4
			c-10.3,5.5-21.3,9.4-32.6,12.6c-10.7,3.2-21.7,5.8-32.9,7.1c-0.3,0-0.5,0.1-0.8,0.1c-2.4,0.1-5,0.3-7.4,0.4
			c-6.6,0.3-11.4,3.2-14.6,8.9c-0.9,1.7-1.7,3.6-2.3,5.6c-1.2,4.2-1.6,8.5-1.3,12.7c0.3,5.2,0.5,10.5,0.8,15.7c0,0.3,0,0.4,0,0.7
			c-0.1,3.2,0,6.4-0.4,9.7c-0.8,8.9-3,17.3-5.9,25.6c-4.8,13.7-11.7,26.2-20.3,38c-10.7,14.8-23.5,27.5-38.6,37.8
			c-5.6,3.9-11,8.3-15.6,13.3c-6.2,6.8-11.1,14.4-14.4,23.1c-4,11-5,22.1-2.3,33.5c1.6,7.1,4.7,13.5,8.9,19.6c0.7,1.1,1.5,2,1.5,3.5
			c0,3.9,1.5,7.4,3.6,10.5c4.7,6.8,11.1,11.1,19,13.5c2.3,0.7,4.6,1.2,7,1.1c6.3-0.5,11.9-2.7,16.5-7c0.4-0.4,0.8-0.7,1.3-0.9
			c0.3-0.1,0.7,0,0.8,0.3c0.1,0.1,0.4,0.7,0.3,0.8c-0.5,0.7-0.9,1.3-1.6,2c-2.8,2.5-6,4.4-9.7,5.6c-0.9,0.3-1.9,0.4-2.7,1.5
			c0.3,0.5,0.5,1.2,0.9,1.9c3.1,4.3,6.8,7.6,11.3,10.5c8.3,5.2,17.6,7.4,27.2,7.6c12.3,0.3,24-2.7,34.9-8.7
			C243,669,252,660.6,257.6,649c1.7-3.5,4.2-6.4,6.8-9.3c5.1-5.2,11-9.5,17.3-13.3c17-10.2,35.4-16.8,55.3-18.9
			c4.4-0.5,9-0.7,13.4,0.1c6.2,0.9,12.3,1.7,18.5,2c11.4,0.7,22.7,0.5,34.1-0.9c8.6-1.1,16.9-2.8,25.1-5.4
			c13.1-4,25.4-10.1,36.1-18.6c12.9-10.3,22.1-23.2,27.2-38.9c3.9-12.2,4.8-24.8,3.4-37.6C494.7,506.1,494.3,504.1,493.9,502.1z
			 M426.9,219.6c-1.5-1.5-2.5-2.5-3.8-3.8c-2.1-2.3-4.3-4.4-6.4-6.7c-0.9-0.9-1.9-1.3-3.1-1.2c-0.5,0-1.1,0-1.6,0.1
			c-6.3,0.7-12.6,1.1-18.9,2c-9,1.2-18,2.5-27,4.2c-16.9,3.1-33.5,7.1-49.9,12.1c-10.2,3.1-20.1,6.7-29.9,11c-0.7,0.3-1.3,0.5-2,0.9
			c-1.3,0.8-1.6,1.9-0.9,3.2c0.3,0.5,0.7,1.1,1.1,1.6c1.2,1.3,2.4,2.8,3.6,4.2c5.5,5.8,11.7,10.7,18.2,15.2
			c11.4,7.8,23.6,14.4,36.4,20c20.7,9.3,42.1,16.4,64.3,21.5c7.1,1.6,14.2,3.1,21.5,3.9c3.2,0.4,6.4,0.5,9.5,0.9
			c10.7,1.2,21.5,3.2,31.8,6.3c0.5,0.1,1.1,0.3,1.6,0.4c1.2,0.1,1.9-0.4,1.9-1.6c0-0.5-0.1-1.1-0.1-1.6c-0.3-2.1-0.7-4.3-0.9-6.3
			c-1.3-10.1-2.7-20.1-4.2-30.3c-1.6-11.5-3.2-23.1-4.8-34.7c-1.3-9.9-2.7-19.7-4-29.6c-0.3-2.3-0.7-2.7-3-3
			c-5.8-0.8-11.5-0.9-17.4-1.1C434.8,211,430.9,215.2,426.9,219.6z M569.6,367c0.8,0.8,1.5,1.3,2.1,1.9c1.2,0.8,2.5,1.6,3.8,2.4
			c21.2,14.1,41.7,29,61.8,44.5c3.2,2.5,3.2,3.6,6.8-0.7c11.5-13,23.1-26,34.6-38.9c14.5-16.2,29-32.5,43.3-48.8
			c0.4-0.5,0.9-0.9,1.2-1.5c0.7-0.9,0.5-2.1-0.1-3c-0.7-0.7-1.3-1.3-2.1-2c-4.4-3.8-8.9-7.5-13.3-11.1c-3.4-2.7-6.7-5.4-10.1-8
			c-1.1-0.9-2.1-1.2-3.5-0.8c-1.1,0.3-2.1,0.5-3.1,0.7c-5.2,1.1-10.5,2.3-15.7,3.4c-1.1,0.3-2.3,0.8-3.5,0.3
			c-0.1-0.3-0.3-0.7-0.3-0.9c-0.9-7.2-1.9-14.5-2.7-21.7c-0.1-1.6-0.8-2.7-2.1-3.6c-8.7-5.6-17.4-11.4-26.2-17
			c-3.4-2.1-3.6-2-5.8,1.3c-6.2,10.1-12.3,20.1-18.6,30c-14.8,23.2-29.5,46.3-44.3,69.5C571.2,364.1,570.5,365.4,569.6,367z
			 M717.3,495.9c0,0.4,0,0.7,0.1,0.8c0.5,0.7,1.1,1.3,1.6,2c16.1,18.4,31.5,37.4,46.1,57c1.6,2.3,3.4,4.4,5,6.7
			c1.7,2.4,2.1,2.4,4.7,0.7c0.7-0.4,1.2-0.9,1.9-1.3c26.4-19.9,53-39.8,79.4-59.7c5.2-3.9,10.5-7.8,15.7-11.8c2-1.6,2.1-2.1,0.8-4.3
			c-0.3-0.4-0.5-0.9-0.9-1.3c-9-13-18.6-25.6-28.8-37.8c-8.9-10.6-18.1-20.9-27.4-31.1c-1.1-1.2-2.1-2.4-3.4-3.5
			c-1.1-1.1-2-1.1-3.1-0.1c-0.4,0.3-0.7,0.5-0.9,0.9c-2.5,2.4-5.2,4.8-7.8,7.2c-15.7,14.2-31.4,28.6-47.1,42.8
			c-10.9,9.9-21.7,19.7-32.6,29.6C719.1,493.5,717.9,494.6,717.3,495.9z M825.4,645.6c0.8-0.4,1.9-0.9,3-1.5c3.1-1.7,6-3.6,9.1-5.5
			c30.7-18.5,61.6-37,92.3-55.5c0.9-0.5,1.9-1.1,2.7-1.7c1.1-0.8,1.3-1.6,0.8-2.8c-0.4-1.1-1.1-2.1-1.6-3.1
			c-6.6-11.9-13.7-23.6-21.2-34.9c-0.4-0.7-0.8-1.2-1.3-1.9c-2.7,0.1-5.2,0.3-7.8,0.4c-2.4,0.1-5,0.4-7.4,0.5
			c-2.5,0.1-5,0.8-7.8,0.3c0.5-0.9,0.8-1.7,1.2-2.4c2.8-4.8,5.8-9.5,8.6-14.4c0.8-1.3,0.9-2.4-0.1-3.8c-5.1-6.8-10.1-13.7-15-20.4
			c-1.6-2.1-2-2.1-4.2-0.7c-0.7,0.4-1.2,0.9-1.9,1.3c-10.7,7.9-21.3,16-32.1,23.7c-20.8,15.3-41.6,30.6-62.5,45.9
			c-0.7,0.5-1.3,1.1-2,1.6c-1.1,0.9-1.1,1.6-0.4,2.8c0.4,0.7,0.9,1.3,1.5,2.1c11.1,15.8,21.9,31.8,31.9,48.3
			c3.9,6.3,7.6,12.6,11.5,18.9C823.5,643.9,823.8,645.2,825.4,645.6z M932.8,616.9c1.3-2,2.4-3.8,3.6-5.4c2.1-3.2,4.2-6.4,6.4-9.7
			c1.1-1.6,1.3-3,0.3-4.7c-1.2-1.7-2-3.8-3.1-5.6c-0.3-0.5-0.5-0.9-0.8-1.3c-0.7-0.9-1.5-1.2-2.5-0.7c-0.9,0.4-1.9,1.1-2.8,1.6
			c-14.4,8.5-28.8,17-43.2,25.5c-19.3,11.4-38.6,22.8-57.9,34.2c-0.4,0.3-0.9,0.5-1.3,0.8c-2.1,1.3-2.3,1.7-1.1,3.9
			c0.4,0.8,0.9,1.7,1.3,2.5c7.2,12.7,14.1,25.8,20.7,38.9c5.2,10.5,10.2,21.1,15.2,31.5c0.4,0.8,0.7,1.6,1.1,2.3
			c0.5,0.8,1.3,1.1,2.3,0.7c0.4-0.1,0.8-0.4,1.2-0.5c13.7-7.5,27.2-14.9,40.9-22.4c20.5-11.3,41-22.4,61.4-33.7
			c0.9-0.5,1.9-1.1,2.8-1.6c1.1-0.8,1.3-1.5,0.8-2.8c-1.9-4.6-3.9-9-5.9-13.5c-0.4-0.9-1.1-1.3-2-1.3c-2.5-0.1-5.1-0.3-7.6-0.3
			c-2.8-0.1-5.6-0.1-8.3-0.3c0,0-0.1-0.1-0.1-0.3c0-0.1,0-0.4,0.1-0.5c3.4-3.6,6.6-7.4,9.9-11c1.1-1.1,1.1-2.1,0.4-3.5
			c-3.2-6.4-6.3-12.9-9.4-19.4c-0.3-0.5-0.5-1.2-0.9-1.7c-0.4-0.7-1.1-1.1-1.9-1.1c-0.5,0-1.1,0-1.6,0
			C944.8,617.3,939,617,932.8,616.9z M1012.6,771.3c-0.3-0.8-0.5-2-0.8-3.1c-4.7-15.6-9.7-31.1-15-46.5
			c-4.3-12.2-8.9-24.4-13.3-36.6c-0.1-0.5-0.4-1.1-0.5-1.5c-0.8-1.7-1.6-2.1-3.4-1.3c-0.8,0.3-1.5,0.8-2.3,1.2
			c-12.6,6.6-25.2,13.3-37.8,19.9c-20.7,10.7-41.2,21.6-61.8,32.3c-1.2,0.7-2.4,1.3-3.6,2c-1.2,0.7-1.5,1.3-1.1,2.7
			c0.3,0.7,0.5,1.3,0.8,2.1c9.7,23.1,18.6,46.3,26.6,70c0.5,1.5,0.9,2.8,1.5,4.3c0.4,1.1,1.2,1.5,2.3,1.2c0.7-0.1,1.3-0.5,2.1-0.8
			c3.6-1.5,7.4-3,11-4.6c30.6-12.6,61.2-25.2,91.7-38c0.9-0.4,1.7-0.8,2.7-1.2C1012.4,773,1012.6,772.4,1012.6,771.3z M1011,827.1
			c0.7-0.9,1.2-1.5,1.6-2c3-3.6,5.9-7.4,9-10.9c0.9-1.1,1.1-2.1,0.8-3.5c-1.7-7.6-3.4-15.3-5-22.9c-0.4-1.7-0.8-3.5-1.3-5.4
			c-0.5-1.7-1.1-2-2.8-1.5c-1.1,0.4-2.1,0.8-3.4,1.2c-8.2,3.4-16.5,6.8-24.7,10.2c-25.5,10.6-51.1,21.2-76.6,31.8
			c-3.5,1.5-3.6,1.5-2.5,5.2c6,19.4,11.3,39.2,15.2,59.2c3.5,17.3,6.6,34.5,7.5,52.2c0,0.8,0.1,1.7,0.4,2.5c0.5,1.5,2.1,1.7,3.1,0.5
			c0.4-0.5,0.7-1.3,1.1-2c1.5-2.5,2.7-5.1,4.3-7.5c4-6.3,9-12.1,14.2-17.4c9.9-10.3,20.8-19.6,32.3-27.9
			c13.5-9.7,27.6-18.4,43.5-23.9c1.9-0.7,2.1-0.9,2-3.1c0-0.5-0.1-1.1-0.1-1.6c-0.8-6.7-1.6-13.4-2.3-20.1c-0.1-1.9-0.9-3-2.4-3.8
			c-2-1.2-4-2.5-5.9-3.9C1016.5,830.7,1014,829,1011,827.1z"/>
		<path class="st1" d="M210.2,432.1c-0.3-5.2-0.5-10.5-0.8-15.7c-0.1-4.3,0.1-8.6,1.3-12.7c0.5-1.9,1.3-3.9,2.3-5.6
			c3.1-5.8,8-8.7,14.6-8.9c2.4-0.1,5-0.3,7.4-0.4c0.3,0,0.5-0.1,0.8-0.1c11.1-1.3,22.1-3.9,32.9-7.1c11.3-3.4,22.1-7.2,32.6-12.6
			c3.1-1.6,5.9-3.5,8.7-5.4c0.5-0.3,0.9-0.8,1.6-1.3c-0.7-0.3-1.1-0.5-1.6-0.7c-7.9-1.7-14.4-5.9-20.1-11.4
			c-8.3-7.9-13.9-17.6-18-28.2c-4.3-11.3-6.6-23.1-6.7-35.1c0-0.4,0-0.8-0.1-1.3c0-1.1,0-2.3,0-3.4c0.3-4,0.4-8.2,0.9-12.2
			c0.8-7.6,2.8-15,5.6-22c0.3-0.8,0.7-1.6,1.2-2.3c0.4-0.7,1.5-0.7,2-0.1c0.3,0.3,0.5,0.7,0.8,0.9c4.2,7.1,10.1,12.7,16.5,17.8
			c8.5,6.8,17.7,12.6,27.2,17.7c18.4,9.9,37.7,17.6,57.5,23.9c15.3,4.8,31,8.7,46.8,11.4c5.5,0.9,11,1.5,16.5,2.1
			c6.7,0.8,13.4,1.9,20,3.4c28.4,6.2,55.7,15.4,82.1,27.6c6.3,3,12.5,6.3,18.6,9.5c0.5,0.3,0.9,0.5,1.3,0.8c0.9,0.7,1.2,1.5,0.7,2.5
			c-0.9,1.9-2,3.8-3,5.8c-0.5,1.1-0.9,2.1-1.6,3.2c0.8,0.5,1.3,0.9,2,1.3c27.4,15,52.4,33.4,76.2,53.5c9.7,8.2,19,16.6,28.2,25.5
			c6.7,6.6,13.4,13,19.9,19.7c15.8,16.4,30.9,33.4,45.3,51c20.3,24.7,39.3,50.4,57,77.1c18.6,27.9,35.8,56.7,51.5,86.5
			c16.9,31.9,31.9,64.5,44.9,98.2c9.9,25.6,18.5,51.6,25.4,78.3c4.2,16.2,7.8,32.6,10.3,49.1c1.3,8.2,2.1,16.4,3.2,24.5
			c0.1,0.8,0.1,1.5,0.1,2.3c0,0.7-0.4,1.2-1.1,1.3c-0.4,0.1-1.1-0.1-1.5-0.4c-0.5-0.4-0.8-0.9-1.2-1.5c-8.2-11.3-17-22-26.7-32.2
			c-16-16.8-33.7-31.5-52.7-44.7c-28.3-19.4-58.8-34.5-91.1-45.9c-21.9-7.8-44.3-13.7-66.9-18c-10.6-2-21.1-3.6-31.8-4.8
			c-10.6-1.2-21.1-2.1-31.7-2.7c-12.5-0.7-25.1-0.7-37.6-0.4c-6.8,0.1-13.7,0.4-20.5,0.8c-6.3,0.4-12.6,0.9-18.9,1.6
			c-7.4,0.8-14.6,1.7-22,2.7c-10.5,1.5-20.9,3.4-31.4,5.5c-14.2,3-28.2,6.6-42,10.7c-0.9,0.3-2,0.4-3,0.7c-1.3-0.9-1.2-1.9-0.7-3
			c2-4.2,4-8.3,5.9-12.5c5.2-12.3,8.7-25.4,11.5-38.5c2-9.5,3.4-19.2,4.4-29c1.1-10.5,1.7-20.9,1.6-31.5c0-3.8,0-7.5,0-11.3
			c0-0.1,0.1-0.1,0.1-0.3c0-0.1-0.1-0.3-0.3-0.5c-0.3-5.5-0.4-11.1-0.8-16.6c-0.9-11.3-2.4-22.5-4.7-33.7c-1.6-8-3.6-15.8-6.2-23.6
			c-0.5-1.5-1.1-3.1-1.6-4.6c-0.7-1.9-0.4-2.3,1.2-3.5c3-1.9,6-3.8,8.9-5.8c18-13.4,29.2-31.3,34.1-53.3c2-9,2.3-18.1,1.7-27.2
			c-0.4-5.1-1.2-10.2-2.4-15.2c-0.8-3.1-1.7-5.8-3-9.1c0.7,3.1,0.9,5.6,1.6,8.6c0.3,2,0.9,4.4,1.1,6.4c1.5,12.7,0.5,25.2-3.4,37.6
			c-5.1,15.8-14.4,28.6-27.2,38.9c-10.7,8.6-22.9,14.6-36.1,18.6c-8.2,2.5-16.6,4.3-25.1,5.4c-11.3,1.5-22.7,1.6-34.1,0.9
			c-6.2-0.4-12.3-1.1-18.5-2c-4.4-0.7-9-0.5-13.4-0.1c-19.9,2.1-38.1,8.7-55.3,18.9c-6.3,3.8-12.2,8-17.3,13.3
			c-2.7,2.8-5.1,5.8-6.8,9.3c-5.6,11.7-14.6,20-25.8,26.2c-10.9,5.9-22.5,8.9-34.9,8.7c-9.7-0.1-18.9-2.4-27.2-7.6
			c-4.4-2.8-8.2-6.2-11.3-10.5c-0.4-0.5-0.7-1.3-0.9-1.9c0.7-1.1,1.7-1.2,2.7-1.5c3.6-1.2,6.8-3.1,9.7-5.6c0.7-0.5,1.1-1.2,1.6-2
			c0.1-0.1,0-0.7-0.3-0.8c-0.1-0.1-0.7-0.4-0.8-0.3c-0.5,0.3-0.9,0.5-1.3,0.9c-4.7,4.4-10.3,6.4-16.5,7c-2.4,0.3-4.7-0.4-7-1.1
			c-7.9-2.4-14.4-6.7-19-13.5c-2.1-3.1-3.6-6.6-3.6-10.5c0-1.5-0.8-2.4-1.5-3.5c-4.2-5.9-7.1-12.5-8.9-19.6
			c-2.7-11.4-1.7-22.5,2.3-33.5c3.2-8.7,8.2-16.2,14.4-23.1c4.7-5.1,9.9-9.5,15.6-13.3c15.2-10.3,27.9-23.1,38.6-37.8
			c8.5-11.7,15.3-24.3,20.3-38c3-8.3,5-16.9,5.9-25.6c0.3-3.2,0.3-6.4,0.4-9.7c0-0.1,0.3-0.1,0.1-0.3
			C210.4,432.3,210.2,432.2,210.2,432.1z M232.5,455.8c0.7,0,0.9,0.1,1.1,0c0.8-0.3,1.6-0.7,2.4-1.1c9.7-4.7,18.2-10.7,26.4-17.6
			c6.6-5.5,12.7-11.5,17.8-18.4c2-2.7,3.9-5.4,5.1-8.5c0.3-0.5,0.3-1.2,0.4-1.7c-0.5-0.1-0.8-0.3-1.1-0.4
			c-7.2-1.5-14.5-1.6-21.7-1.2c-2.3,0.1-4.4,0.7-6.7,1.1c-3.1,0.5-5,2.3-6.2,5.2c-4.2,10.3-8.5,20.5-12.7,30.9
			C235.7,448,234.2,451.8,232.5,455.8z"/>
		<path class="st1" d="M493.3,227.5c2.8-5.2,5.5-10.5,8.3-15.7c0-0.1,0.1-0.1,0.1-0.3c1.3-2.4,1.5-2.5,4.3-2.1
			c1.7,0.3,3.4,0.5,5.1,0.8c17.6,3.2,34.9,7.6,51.9,13.4c13,4.3,25.8,9.4,38.1,15.3c3.9,1.9,4,1.5,2.5,6c-1.5,4.6-3.1,9.1-4.6,13.7
			c-0.1,0.5-0.3,1.2-0.5,2.3c0.8-0.5,1.2-0.8,1.6-1.1c4.2-3.6,8.3-7.1,12.5-10.7c0.5-0.5,1.1-0.9,1.7-1.5c0.8-0.7,1.7-0.8,2.7-0.3
			c1.3,0.8,2.5,1.6,3.8,2.4c1.9,1.2,3.8,2.5,5.5,3.9c0.9,0.7,1.1,1.5,0.5,2.5c-0.4,0.8-0.9,1.7-1.5,2.5
			c-15.8,25.6-31.5,51.4-47.3,77c-2.8,4.7-5.8,9.3-8.6,13.9c-0.5,0.8-0.8,1.7-1.9,2.1c-1.1,0.1-2-0.7-3-1.1
			c-13.3-6.7-26.8-12.9-40.8-18.4c-11.9-4.8-24-9.1-36.5-12.6c-4.8-1.3-3.9-1.3-4.4-5.2c-1.9-11.9-3.6-24-5.5-35.9
			c-1.7-11.8-3.6-23.7-5.5-35.5c-1.3-9.1-2.7-18.2-4.2-27.4c-0.3-2-0.7-4-0.9-6c-0.3-1.7,0.3-2.3,2-2.5c5.5-0.7,10.9-0.5,16.4-0.1
			c1.3,0.1,2.5,0.1,3.9,0.3c1.2,0.1,1.7,0.7,1.9,1.9c0.1,0.7,0,1.3,0.1,1.9c0.3,5.4,0.5,10.7,0.8,16.1c0,0.1-0.1,0.4-0.1,0.5
			c0.1,0.7,0.5,0.9,0.9,0.5C493.1,228.1,493.1,227.8,493.3,227.5z"/>
		<path class="st1" d="M426.9,219.6c4.2-4.4,7.9-8.6,11.7-12.7c6,0.1,11.8,0.3,17.4,1.1c2.3,0.3,2.7,0.7,3,3
			c1.3,9.9,2.7,19.7,4,29.6c1.6,11.5,3.2,23.1,4.8,34.7c1.3,10.1,2.7,20.1,4.2,30.3c0.3,2.1,0.7,4.3,0.9,6.3
			c0.1,0.5,0.1,1.1,0.1,1.6c0,1.1-0.7,1.7-1.9,1.6c-0.5-0.1-1.1-0.3-1.6-0.4c-10.5-3.1-21.1-5.1-31.8-6.3c-3.2-0.4-6.4-0.5-9.5-0.9
			c-7.2-0.8-14.4-2.4-21.5-3.9c-22.1-5-43.5-12.1-64.3-21.5c-12.6-5.6-24.8-12.2-36.4-20c-6.6-4.4-12.9-9.4-18.2-15.2
			c-1.2-1.3-2.4-2.7-3.6-4.2c-0.4-0.5-0.8-1.1-1.1-1.6c-0.8-1.3-0.4-2.5,0.9-3.2c0.7-0.4,1.3-0.7,2-0.9c9.7-4.3,19.7-7.8,29.9-11
			c16.4-5.1,33-9,49.9-12.1c9-1.6,18-3,27-4.2c6.3-0.8,12.6-1.3,18.9-2c0.5,0,1.1,0,1.6-0.1c1.2-0.1,2.3,0.3,3.1,1.2
			c2.1,2.3,4.3,4.6,6.4,6.7C424.3,217.1,425.4,218.1,426.9,219.6z"/>
		<path class="st1" d="M569.6,367c0.9-1.6,1.6-3,2.4-4.2c14.8-23.2,29.5-46.3,44.3-69.5c6.3-9.9,12.5-20,18.6-30
			c2-3.4,2.4-3.5,5.8-1.3c8.7,5.6,17.4,11.4,26.2,17c1.5,0.9,2,2,2.1,3.6c0.8,7.2,1.7,14.5,2.7,21.7c0,0.3,0.3,0.5,0.3,0.9
			c1.2,0.5,2.3,0,3.5-0.3c5.2-1.1,10.5-2.3,15.7-3.4c1.1-0.3,2.1-0.4,3.1-0.7c1.3-0.4,2.4,0,3.5,0.8c3.4,2.7,6.7,5.4,10.1,8
			c4.4,3.8,8.9,7.5,13.3,11.1c0.7,0.7,1.5,1.3,2.1,2c0.8,0.8,0.8,2,0.1,3c-0.4,0.5-0.8,0.9-1.2,1.5c-14.5,16.2-29,32.5-43.3,48.8
			c-11.5,13-23.1,25.9-34.6,38.9c-3.8,4.2-3.8,3.1-6.8,0.7c-20-15.7-40.6-30.4-61.8-44.5c-1.2-0.8-2.5-1.6-3.8-2.4
			C571.1,368.4,570.4,367.8,569.6,367z"/>
		<path class="st1" d="M717.3,495.9c0.7-1.3,2-2.4,3.2-3.5c10.9-9.9,21.7-19.7,32.6-29.6c15.7-14.2,31.4-28.6,47.1-42.8
			c2.7-2.4,5.2-4.8,7.8-7.2c0.3-0.3,0.5-0.7,0.9-0.9c1.2-0.9,2-0.9,3.1,0.1c1.2,1.1,2.3,2.3,3.4,3.5c9.3,10.2,18.5,20.5,27.4,31.1
			c10.2,12.2,19.9,24.8,28.8,37.8c0.3,0.4,0.5,0.9,0.9,1.3c1.3,2.1,1.2,2.7-0.8,4.3c-5.2,3.9-10.5,7.9-15.7,11.8
			c-26.4,19.9-53,39.8-79.4,59.7c-0.5,0.4-1.2,0.9-1.9,1.3c-2.5,1.7-2.8,1.7-4.7-0.7c-1.6-2.3-3.4-4.4-5-6.7
			c-14.6-19.6-30-38.5-46.1-57c-0.5-0.7-1.1-1.3-1.6-2C717.3,496.5,717.3,496.2,717.3,495.9z"/>
		<path class="st1" d="M775.9,395.6c3-0.8,5.9-1.7,9-2.5c2.3-0.7,4.4-1.5,6.7-2.1c1.3-0.4,2.4-0.1,3.5,0.9c2.3,2.8,4.8,5.5,7.1,8.3
			c1.6,1.9,1.6,2.5-0.4,4.3c-4.4,4.2-8.9,8.2-13.1,12.2c-8.3,7.6-16.5,15.3-24.8,22.9c-12.2,11.3-24.4,22.5-36.6,33.8
			c-4.7,4.3-9.3,8.6-13.9,12.9c-2.8,2.5-3.1,2.5-5.6-0.3c-11.9-13.1-24.3-26-37-38.5c-6.2-6-12.5-12.1-18.8-18.1
			c-0.7-0.7-1.5-1.3-2-2c-1.2-1.3-1.3-1.9-0.1-3.4c1.9-2.1,3.8-4.3,5.8-6.4c16.4-18.1,32.7-36.4,49.1-54.5
			c8.3-9.3,16.5-18.6,24.8-27.9c0.8-0.9,1.6-1.7,2.4-2.5c0.8-0.8,1.6-0.8,2.5-0.1c0.7,0.4,1.2,0.9,1.7,1.5
			c9.1,8.3,18.2,16.5,27.2,24.9c6,5.8,11.8,11.8,17.7,17.7c0.7,0.7,1.5,1.3,1.6,2.7c-1.1,2.4-2.3,5-3.5,7.6
			c-1.1,2.3-2.1,4.4-3.1,6.7c-0.3,0.5-0.3,1.1-0.4,1.5c-0.1,0.1-0.3,0.3-0.3,0.4C775.5,395.6,775.7,395.6,775.9,395.6z"/>
		<path class="st1" d="M825.4,645.6c-1.6-0.5-1.9-1.7-2.5-2.7c-3.9-6.3-7.6-12.7-11.5-18.9c-10.2-16.4-20.8-32.5-31.9-48.3
			c-0.5-0.7-1.1-1.3-1.5-2.1c-0.8-1.2-0.7-1.9,0.4-2.8c0.7-0.5,1.3-1.1,2-1.6c20.8-15.3,41.7-30.6,62.5-45.9
			c10.7-7.9,21.3-15.8,32.1-23.7c0.5-0.4,1.2-0.9,1.9-1.3c2.1-1.5,2.5-1.5,4.2,0.7c5.1,6.8,10.1,13.7,15,20.4
			c0.9,1.3,0.9,2.4,0.1,3.8c-3,4.7-5.8,9.5-8.6,14.4c-0.4,0.7-0.8,1.5-1.2,2.4c2.8,0.5,5.4-0.3,7.8-0.3c2.4-0.1,5-0.4,7.4-0.5
			c2.5-0.1,5.1-0.3,7.8-0.4c0.5,0.7,0.9,1.2,1.3,1.9c7.5,11.4,14.5,22.9,21.2,34.9c0.5,1.1,1.2,2,1.6,3.1c0.5,1.2,0.3,2-0.8,2.8
			c-0.8,0.7-1.7,1.2-2.7,1.7c-30.7,18.5-61.6,37-92.3,55.5c-3.1,1.9-6,3.6-9.1,5.5C827.3,644.8,826.2,645.2,825.4,645.6z"/>
		<path class="st1" d="M932.8,616.9c6.2,0.3,11.9,0.4,17.7,0.5c0.5,0,1.1,0,1.6,0c0.8,0,1.5,0.4,1.9,1.1c0.3,0.5,0.7,1.1,0.9,1.7
			c3.1,6.4,6.2,13,9.4,19.4c0.7,1.3,0.5,2.4-0.4,3.5c-3.4,3.6-6.7,7.2-9.9,11c-0.1,0.1-0.1,0.3-0.1,0.5c0,0.1,0.1,0.3,0.1,0.3
			c2.8,0.1,5.6,0.1,8.3,0.3c2.5,0.1,5.1,0.3,7.6,0.3c0.9,0,1.6,0.4,2,1.3c2,4.6,3.9,9,5.9,13.5c0.5,1.3,0.3,2-0.8,2.8
			c-0.9,0.5-1.9,1.1-2.8,1.6c-20.5,11.3-41,22.4-61.4,33.7c-13.7,7.5-27.2,14.9-40.9,22.4c-0.4,0.3-0.8,0.4-1.2,0.5
			c-0.9,0.4-1.7,0.1-2.3-0.7c-0.4-0.8-0.8-1.6-1.1-2.3c-5.1-10.6-10.1-21.1-15.2-31.5c-6.6-13.1-13.4-26.2-20.7-38.9
			c-0.5-0.8-0.9-1.7-1.3-2.5c-1.1-2.1-0.9-2.5,1.1-3.9c0.4-0.3,0.9-0.5,1.3-0.8c19.3-11.4,38.6-22.8,57.9-34.2
			c14.4-8.5,28.8-17,43.2-25.5c0.9-0.5,1.9-1.1,2.8-1.6c1.1-0.5,1.9-0.3,2.5,0.7c0.3,0.4,0.5,0.9,0.8,1.3c1.1,1.9,1.9,3.9,3.1,5.6
			c1.1,1.7,0.8,3.1-0.3,4.7c-2.1,3.2-4.3,6.4-6.4,9.7C935.2,613.2,934.2,614.8,932.8,616.9z"/>
		<path class="st1" d="M1012.6,771.3c0,1.1-0.3,1.7-1.1,2.1c-0.8,0.4-1.7,0.8-2.7,1.2c-30.6,12.6-61.2,25.2-91.7,38
			c-3.6,1.5-7.4,3.1-11,4.6c-0.7,0.3-1.3,0.5-2.1,0.8c-1.1,0.3-1.9-0.1-2.3-1.2c-0.5-1.3-0.9-2.8-1.5-4.3
			c-7.8-23.7-16.9-46.9-26.6-70c-0.3-0.7-0.7-1.3-0.8-2.1c-0.4-1.3-0.1-2,1.1-2.7c1.2-0.7,2.4-1.3,3.6-2
			c20.7-10.7,41.2-21.6,61.8-32.3c12.6-6.6,25.2-13.3,37.8-19.9c0.8-0.4,1.5-0.8,2.3-1.2c1.6-0.7,2.5-0.4,3.4,1.3
			c0.3,0.5,0.4,0.9,0.5,1.5c4.4,12.2,9,24.4,13.3,36.6c5.4,15.4,10.3,30.9,15,46.5C1012.1,769.3,1012.4,770.5,1012.6,771.3z"/>
		<path class="st1" d="M1011,827.1c2.8,1.9,5.5,3.6,8,5.2c2,1.3,3.9,2.7,5.9,3.9c1.5,0.9,2.3,2,2.4,3.8c0.7,6.7,1.5,13.4,2.3,20.1
			c0,0.5,0.1,1.1,0.1,1.6c0.1,2.1-0.1,2.4-2,3.1c-15.8,5.5-29.9,14.2-43.5,23.9c-11.7,8.3-22.4,17.6-32.3,27.9
			c-5.2,5.4-10.1,11.1-14.2,17.4c-1.6,2.4-2.8,5-4.3,7.5c-0.4,0.7-0.7,1.3-1.1,2c-0.9,1.2-2.5,0.9-3.1-0.5c-0.3-0.8-0.4-1.6-0.4-2.5
			c-0.9-17.6-4.2-34.9-7.5-52.2c-4-20-9.3-39.7-15.2-59.2c-1.1-3.6-1.1-3.8,2.5-5.2c25.5-10.6,51.1-21.2,76.6-31.8
			c8.2-3.4,16.4-6.8,24.7-10.2c1.1-0.4,2.1-0.9,3.4-1.2c1.7-0.5,2.3-0.3,2.8,1.5c0.5,1.7,0.9,3.5,1.3,5.4c1.7,7.6,3.4,15.3,5,22.9
			c0.3,1.3,0.1,2.4-0.8,3.5c-3.1,3.6-6,7.2-9,10.9C1012.2,825.6,1011.8,826.2,1011,827.1z"/>
		<path class="st2" d="M265.1,282c0,1.1,0,2.3,0,3.4C264.6,284.3,264.6,283.2,265.1,282z"/>
		<path class="st3" d="M493.3,227.5c-0.1,0.3-0.1,0.7-0.4,0.8c-0.4,0.4-0.9,0.3-0.9-0.5c0-0.1,0.1-0.4,0.1-0.5
			C492.5,227.3,492.9,227.4,493.3,227.5z"/>
		<path class="st4" d="M235.9,388.5c-0.3,0-0.5,0.1-0.8,0.1C235.3,388.6,235.6,388.6,235.9,388.5z"/>
		<path class="st5" d="M210.2,432.1c0.1,0.1,0.1,0.3,0.3,0.5c0,0-0.1,0.1-0.1,0.3C210.2,432.5,210.2,432.3,210.2,432.1z"/>
		<path class="st6" d="M465,685.7c0.1,0.1,0.3,0.3,0.3,0.5c0,0-0.1,0.1-0.1,0.3C465.1,686.3,465.1,686,465,685.7z"/>
		<path class="st0" d="M232.5,455.8c1.6-4,3.2-7.8,4.7-11.5c4.3-10.3,8.7-20.5,12.7-30.9c1.2-3.1,3.1-4.7,6.2-5.2
			c2.1-0.4,4.4-0.9,6.7-1.1c7.2-0.4,14.6-0.3,21.7,1.2c0.3,0,0.7,0.1,1.1,0.4c-0.1,0.5-0.1,1.2-0.4,1.7c-1.3,3.1-3.2,5.9-5.1,8.5
			c-5.2,6.8-11.3,12.9-17.8,18.4c-8.2,6.8-16.8,13-26.4,17.6c-0.8,0.4-1.6,0.7-2.4,1.1C233.4,455.9,233.2,455.9,232.5,455.8z"/>
		<path class="st1" d="M775.9,395.6c-0.3,0-0.4,0-0.7,0c0.1-0.1,0.3-0.3,0.3-0.4C775.7,395.5,775.9,395.5,775.9,395.6z"/>
	</g>
</g>
<g id="Layer_2">
</g>
</svg>
