<?xml version="1.0" encoding="utf-8"?>
<!-- Generator: Adobe Illustrator 24.0.2, SVG Export Plug-In . SVG Version: 6.00 Build 0)  -->
<svg version="1.1" xmlns="http://www.w3.org/2000/svg" xmlns:xlink="http://www.w3.org/1999/xlink" x="0px" y="0px"
	 viewBox="0 0 1200 1200" style="enable-background:new 0 0 1200 1200;" xml:space="preserve">
<style type="text/css">
	.st0{fill:none;}
	.st1{fill:#FFFFFF;}
	.st2{fill:#E9D598;}
	.st3{fill:#FFE481;}
	.st4{fill:#E6CD7A;}
	.st5{fill:#D9B53D;}
	.st6{fill:#DDBD50;}
</style>
<g id="Layer_1">
	<g>
		<path class="st0" d="M1346.8,1313.6c-521.3,0-1042.5,0-1563.8,0c0-521.3,0-1042.5,0-1563.8c521.3,0,1042.5,0,1563.8,0
			C1346.8,271.1,1346.8,792.4,1346.8,1313.6z M841.3,386.6c-0.2-0.2-0.3-0.3-0.3-0.3c0.2-0.7,0.2-1.3,0.5-1.8
			c1.3-2.8,2.6-5.4,3.7-8.1c1.5-3.1,2.9-6.4,4.2-9.3c-0.3-1.6-1.1-2.4-2-3.3c-7.2-7.2-14.2-14.5-21.5-21.5
			c-10.9-10.3-22-20.2-33.1-30.3c-0.7-0.7-1.3-1.3-2.1-1.8c-1.1-0.8-2.1-0.8-3.1,0.2c-1,1-2,2.1-2.9,3.1
			c-10.1,11.2-20,22.6-30.1,33.9c-19.9,22.2-39.7,44.1-59.6,66.1c-2.3,2.6-4.7,5.2-7,7.8c-1.5,1.8-1.5,2.4,0.2,4.1
			c0.8,0.8,1.6,1.6,2.4,2.4c7.7,7.3,15.3,14.5,22.8,22c15.5,15.1,30.5,30.8,45,46.8c3.1,3.4,3.4,3.4,6.8,0.3
			c5.7-5.2,11.2-10.4,16.9-15.6c14.8-13.7,29.6-27.4,44.5-41c10.1-9.3,20-18.6,30.1-27.9c5.4-4.9,10.8-9.9,16-14.8
			c2.3-2.1,2.4-2.9,0.5-5.2c-2.8-3.4-5.9-6.7-8.6-10.1c-1.1-1.5-2.4-1.6-4.2-1.1c-2.8,0.8-5.4,1.8-8.1,2.6
			C848.6,384.6,845.1,385.6,841.3,386.6z M496.6,182.2c-0.3-6.5-0.7-13-1-19.5c0-0.8,0-1.6-0.2-2.3c-0.2-1.5-0.8-2.1-2.3-2.3
			c-1.6-0.2-3.1-0.3-4.7-0.3c-6.7-0.5-13.2-0.7-19.9,0.2c-2.1,0.3-2.8,1-2.4,3.1c0.3,2.4,0.8,4.9,1.1,7.3c1.6,11.1,3.3,22.2,5,33.2
			c2.3,14.3,4.6,28.8,6.7,43.2c2.3,14.5,4.2,29.2,6.7,43.7c0.8,4.7-0.3,4.6,5.4,6.4c15,4.2,29.8,9.4,44.3,15.3
			c16.8,6.7,33.2,14.2,49.5,22.3c1.1,0.7,2.3,1.5,3.6,1.3c1.3-0.5,1.6-1.6,2.3-2.6c3.6-5.7,7-11.2,10.4-16.9
			c19.2-31.1,38.3-62.4,57.5-93.5c0.7-1,1.3-2,1.8-3.1c0.7-1.3,0.5-2.3-0.7-3.1c-2.1-1.6-4.4-3.3-6.7-4.7c-1.5-1-3.1-2-4.6-2.9
			c-1.1-0.7-2.3-0.5-3.3,0.3c-0.7,0.7-1.3,1.1-2.1,1.8c-5,4.4-10.1,8.6-15.1,13c-0.5,0.3-1,0.7-2,1.3c0.3-1.3,0.5-2.1,0.7-2.8
			c1.8-5.5,3.6-11.1,5.5-16.6c1.8-5.5,1.6-5-3.1-7.3c-15-7.3-30.5-13.4-46.3-18.6c-20.7-6.8-41.7-12.4-63-16.3
			c-2.1-0.3-4.1-0.7-6.2-1c-3.4-0.5-3.6-0.3-5.2,2.6c0,0.2-0.2,0.2-0.2,0.3c-3.4,6.4-6.7,12.7-10.1,19.1
			C497.6,182.3,497.1,182.2,496.6,182.2z M498.9,515.9c0.5,0,1,0.2,1.5,0.2c1.5,6,2.6,12.2,2.9,18.4c0.8,11.1,0.3,22.2-2.1,33.1
			c-5.9,26.6-19.4,48.4-41.4,64.7c-3.4,2.6-7.2,4.7-10.8,7c-2.1,1.3-2.3,2-1.5,4.2c0.7,1.8,1.3,3.6,2,5.5c3.1,9.4,5.5,19.1,7.5,28.7
			c2.8,13.5,4.6,27.2,5.7,40.9c0.5,6.7,0.7,13.5,1,20.2c0,0.3,0,0.7,0.2,0.8c0,4.6,0,9.1,0,13.7c0.2,12.7-0.7,25.6-2,38.3
			c-1.1,11.7-2.9,23.5-5.4,35.2c-3.3,16-7.7,31.6-14,46.8c-2.1,5.2-4.7,10.1-7.2,15.1c-0.7,1.3-0.8,2.4,0.8,3.6
			c1.1-0.2,2.3-0.3,3.6-0.8c16.8-5,33.9-9.4,51-13c12.5-2.6,25.2-5,38.1-6.7c9-1.1,17.8-2.3,26.7-3.3c7.7-0.8,15.3-1.5,23-2
			c8.3-0.5,16.6-0.8,24.9-1c15.1-0.3,30.5-0.3,45.6,0.5c12.9,0.7,25.7,1.8,38.4,3.3c12.9,1.5,25.7,3.4,38.6,5.9
			c27.7,5.2,54.7,12.4,81.3,21.8c39.3,13.8,76.2,32.1,110.6,55.7c23.1,16,44.6,33.9,64,54.2c11.7,12.2,22.5,25.2,32.4,39.1
			c0.5,0.7,0.8,1.3,1.5,1.8c0.5,0.3,1.1,0.5,1.8,0.5c0.8-0.2,1.3-0.8,1.3-1.6c0-1,0-1.8-0.2-2.8c-1.3-9.9-2.4-19.9-3.9-29.8
			c-3.1-20-7.5-39.9-12.5-59.6c-8.3-32.3-18.7-64-30.8-95.1c-15.8-40.9-34-80.5-54.6-119.2c-19.1-36-39.9-71-62.6-105.1
			c-21.5-32.4-44.5-63.5-69.2-93.7c-17.4-21.3-35.8-42-55.1-61.9c-7.8-8.1-16-16-24.1-23.9c-10.9-10.8-22.5-21-34.2-30.9
			c-28.8-24.6-59.3-46.8-92.5-65c-0.8-0.5-1.5-1-2.4-1.6c0.7-1.5,1.3-2.8,2-3.9c1.1-2.3,2.4-4.6,3.6-7c0.7-1.3,0.3-2.3-0.8-3.1
			c-0.5-0.3-1.1-0.7-1.6-1c-7.5-3.9-15-8-22.6-11.6c-32.1-14.8-65.2-26.1-99.7-33.6c-8-1.8-16.1-3.1-24.3-4.1
			c-6.7-0.8-13.5-1.5-20-2.6c-19.2-3.3-38.1-8-56.9-13.8c-24.1-7.7-47.6-16.9-69.9-29c-11.6-6.2-22.8-13.2-33.1-21.5
			c-7.7-6.2-14.8-13-20-21.7c-0.3-0.5-0.7-0.8-1-1.1c-0.7-0.7-2-0.7-2.4,0.2s-1,1.8-1.5,2.8c-3.6,8.6-5.9,17.6-6.8,26.7
			c-0.5,4.9-0.8,9.9-1.1,14.8c-0.8,1.3-0.8,2.8,0,4.1c0,0.5,0.2,1,0.2,1.6c0.2,14.7,2.9,29,8.1,42.7c4.9,12.9,11.7,24.6,21.8,34.2
			c7,6.7,15,11.7,24.4,13.8c0.7,0.2,1.1,0.5,2,0.8c-0.8,0.7-1.3,1.3-2,1.6c-3.6,2.3-7,4.6-10.6,6.5c-12.5,6.7-25.9,11.4-39.6,15.3
			c-13,3.9-26.4,7-39.9,8.6c-0.3,0-0.7,0.2-1,0.2c-2.9,0.2-6,0.3-9,0.5c-8,0.3-13.8,3.9-17.8,10.8c-1.1,2.1-2.1,4.4-2.8,6.8
			c-1.5,5-2,10.3-1.6,15.5c0.3,6.4,0.7,12.7,1,19.1c0,0.3,0,0.5,0,0.8c-0.2,3.9,0,7.8-0.5,11.7c-1,10.8-3.6,21-7.2,31.1
			c-5.9,16.6-14.2,31.8-24.6,46.1c-13,17.9-28.5,33.4-46.9,45.9C68,571,61.5,576.4,56,582.4c-7.5,8.3-13.5,17.4-17.4,28
			c-4.9,13.4-6,26.9-2.8,40.7c2,8.6,5.7,16.5,10.8,23.8c0.8,1.3,1.8,2.4,1.8,4.2c0,4.7,1.8,9,4.4,12.7c5.7,8.3,13.5,13.5,23.1,16.5
			c2.8,0.8,5.5,1.5,8.5,1.3c7.7-0.7,14.5-3.3,20-8.5c0.5-0.5,1-0.8,1.6-1.1c0.3-0.2,0.8,0,1,0.3c0.2,0.2,0.5,0.8,0.3,1
			c-0.7,0.8-1.1,1.6-2,2.4c-3.4,3.1-7.3,5.4-11.7,6.8c-1.1,0.3-2.3,0.5-3.3,1.8c0.3,0.7,0.7,1.5,1.1,2.3c3.7,5.2,8.3,9.3,13.7,12.7
			c10.1,6.4,21.3,9,33.1,9.3c15,0.3,29.2-3.3,42.4-10.6c13.5-7.5,24.4-17.6,31.3-31.8c2.1-4.2,5-7.8,8.3-11.2
			c6.2-6.4,13.4-11.6,21-16.1c20.7-12.4,43-20.4,67.1-23c5.4-0.7,10.9-0.8,16.3,0.2c7.5,1.1,15,2.1,22.5,2.4
			c13.8,0.8,27.5,0.7,41.4-1.1c10.4-1.3,20.5-3.4,30.5-6.5c16-4.9,30.8-12.2,43.8-22.6c15.6-12.5,26.9-28.2,33.1-47.2
			c4.7-14.8,5.9-30.1,4.1-45.6C499.9,520.8,499.4,518.4,498.9,515.9z M417.5,172.9c-1.8-1.8-3.1-3.1-4.6-4.6
			c-2.6-2.8-5.2-5.4-7.8-8.1c-1.1-1.1-2.3-1.6-3.7-1.5c-0.7,0-1.3,0-2,0.2c-7.7,0.8-15.3,1.3-23,2.4c-10.9,1.5-21.8,3.1-32.7,5
			c-20.5,3.7-40.7,8.6-60.6,14.7c-12.4,3.7-24.4,8.1-36.3,13.4c-0.8,0.3-1.6,0.7-2.4,1.1c-1.6,1-2,2.3-1.1,3.9
			c0.3,0.7,0.8,1.3,1.3,2c1.5,1.6,2.9,3.4,4.4,5c6.7,7,14.2,13,22.2,18.4c13.8,9.4,28.7,17.4,44.1,24.3c25.1,11.2,51.1,19.9,78,26.1
			c8.6,2,17.3,3.7,26.1,4.7c3.9,0.5,7.8,0.7,11.6,1.1c13,1.5,26.1,3.9,38.6,7.7c0.7,0.2,1.3,0.3,2,0.5c1.5,0.2,2.3-0.5,2.3-2
			c0-0.7-0.2-1.3-0.2-2c-0.3-2.6-0.8-5.2-1.1-7.7c-1.6-12.2-3.3-24.4-5-36.8c-2-14-3.9-28-5.9-42.2c-1.6-12.1-3.3-23.9-4.9-36
			c-0.3-2.8-0.8-3.3-3.6-3.6c-7-1-14-1.1-21.2-1.3C427.1,162.4,422.3,167.5,417.5,172.9z M590.8,351.9c1,1,1.8,1.6,2.6,2.3
			c1.5,1,3.1,2,4.6,2.9c25.7,17.1,50.7,35.2,75.1,54.1c3.9,3.1,3.9,4.4,8.3-0.8c14-15.8,28-31.6,42-47.2
			c17.6-19.7,35.2-39.4,52.6-59.3c0.5-0.7,1.1-1.1,1.5-1.8c0.8-1.1,0.7-2.6-0.2-3.6c-0.8-0.8-1.6-1.6-2.6-2.4
			c-5.4-4.6-10.8-9.1-16.1-13.5c-4.1-3.3-8.1-6.5-12.2-9.8c-1.3-1.1-2.6-1.5-4.2-1c-1.3,0.3-2.6,0.7-3.7,0.8
			c-6.4,1.3-12.7,2.8-19.1,4.1c-1.3,0.3-2.8,1-4.2,0.3c-0.2-0.3-0.3-0.8-0.3-1.1c-1.1-8.8-2.3-17.6-3.3-26.4c-0.2-2-1-3.3-2.6-4.4
			c-10.6-6.8-21.2-13.8-31.8-20.7c-4.1-2.6-4.4-2.4-7,1.6c-7.5,12.2-15,24.4-22.6,36.5c-17.9,28.2-35.8,56.2-53.8,84.4
			C592.7,348.3,591.9,349.9,590.8,351.9z M770.1,508.4c0,0.5,0,0.8,0.2,1c0.7,0.8,1.3,1.6,2,2.4c19.5,22.3,38.3,45.4,56,69.2
			c2,2.8,4.1,5.4,6,8.1c2.1,2.9,2.6,2.9,5.7,0.8c0.8-0.5,1.5-1.1,2.3-1.6c32.1-24.1,64.3-48.4,96.4-72.5c6.4-4.7,12.7-9.4,19.1-14.3
			c2.4-2,2.6-2.6,1-5.2c-0.3-0.5-0.7-1.1-1.1-1.6c-10.9-15.8-22.6-31.1-35-45.9c-10.8-12.9-22-25.4-33.2-37.8
			c-1.3-1.5-2.6-2.9-4.1-4.2c-1.3-1.3-2.4-1.3-3.7-0.2c-0.5,0.3-0.8,0.7-1.1,1.1c-3.1,2.9-6.4,5.9-9.4,8.8
			c-19.1,17.3-38.1,34.7-57.2,52c-13.2,12.1-26.4,23.9-39.6,36C772.4,505.5,770.9,506.8,770.1,508.4z M901.4,690.2
			c1-0.5,2.3-1.1,3.6-1.8c3.7-2.1,7.3-4.4,11.1-6.7c37.3-22.5,74.8-45,112.1-67.4c1.1-0.7,2.3-1.3,3.3-2.1c1.3-1,1.6-2,1-3.4
			c-0.5-1.3-1.3-2.6-2-3.7c-8-14.5-16.6-28.7-25.7-42.4c-0.5-0.8-1-1.5-1.6-2.3c-3.3,0.2-6.4,0.3-9.4,0.5c-2.9,0.2-6,0.5-9,0.7
			c-3.1,0.2-6,1-9.4,0.3c0.7-1.1,1-2.1,1.5-2.9c3.4-5.9,7-11.6,10.4-17.4c1-1.6,1.1-2.9-0.2-4.6c-6.2-8.3-12.2-16.6-18.2-24.8
			c-2-2.6-2.4-2.6-5-0.8c-0.8,0.5-1.5,1.1-2.3,1.6c-13,9.6-25.9,19.4-38.9,28.8c-25.2,18.6-50.5,37.1-75.9,55.7
			c-0.8,0.7-1.6,1.3-2.4,2c-1.3,1.1-1.3,2-0.5,3.4c0.5,0.8,1.1,1.6,1.8,2.6c13.5,19.2,26.6,38.6,38.8,58.6c4.7,7.7,9.3,15.3,14,23
			C899.1,688.1,899.5,689.7,901.4,690.2z M1031.9,655.4c1.6-2.4,2.9-4.6,4.4-6.5c2.6-3.9,5-7.8,7.8-11.7c1.3-2,1.6-3.6,0.3-5.7
			c-1.5-2.1-2.4-4.6-3.7-6.8c-0.3-0.7-0.7-1.1-1-1.6c-0.8-1.1-1.8-1.5-3.1-0.8c-1.1,0.5-2.3,1.3-3.4,2c-17.4,10.3-35,20.7-52.5,30.9
			c-23.5,13.8-46.9,27.7-70.4,41.5c-0.5,0.3-1.1,0.7-1.6,1c-2.6,1.6-2.8,2.1-1.3,4.7c0.5,1,1.1,2.1,1.6,3.1
			c8.8,15.5,17.1,31.3,25.1,47.2c6.4,12.7,12.4,25.6,18.4,38.3c0.5,1,0.8,2,1.3,2.8c0.7,1,1.6,1.3,2.8,0.8c0.5-0.2,1-0.5,1.5-0.7
			c16.6-9.1,33.1-18.1,49.7-27.2c24.9-13.7,49.8-27.2,74.6-40.9c1.1-0.7,2.3-1.3,3.4-2c1.3-1,1.6-1.8,1-3.4
			c-2.3-5.5-4.7-10.9-7.2-16.5c-0.5-1.1-1.3-1.6-2.4-1.6c-3.1-0.2-6.2-0.3-9.3-0.3c-3.4-0.2-6.8-0.2-10.1-0.3c0,0-0.2-0.2-0.2-0.3
			s0-0.5,0.2-0.7c4.1-4.4,8-9,12.1-13.4c1.3-1.3,1.3-2.6,0.5-4.2c-3.9-7.8-7.7-15.6-11.4-23.6c-0.3-0.7-0.7-1.5-1.1-2.1
			c-0.5-0.8-1.3-1.3-2.3-1.3c-0.7,0-1.3,0-2,0C1046.4,655.8,1039.4,655.5,1031.9,655.4z M1128.8,842.8c-0.3-1-0.7-2.4-1-3.7
			c-5.7-18.9-11.7-37.8-18.2-56.5c-5.2-14.8-10.8-29.6-16.1-44.5c-0.2-0.7-0.5-1.3-0.7-1.8c-1-2.1-2-2.6-4.1-1.6
			c-1,0.3-1.8,1-2.8,1.5c-15.3,8-30.6,16.1-45.9,24.1c-25.1,13-50,26.2-75.1,39.3c-1.5,0.8-2.9,1.6-4.4,2.4
			c-1.5,0.8-1.8,1.6-1.3,3.3c0.3,0.8,0.7,1.6,1,2.6c11.7,28,22.6,56.2,32.3,85c0.7,1.8,1.1,3.4,1.8,5.2c0.5,1.3,1.5,1.8,2.8,1.5
			c0.8-0.2,1.6-0.7,2.6-1c4.4-1.8,9-3.6,13.4-5.5c37.1-15.3,74.3-30.6,111.4-46.1c1.1-0.5,2.1-1,3.3-1.5
			C1128.5,845,1128.8,844.2,1128.8,842.8z M1126.9,910.6c0.8-1.1,1.5-1.8,2-2.4c3.6-4.4,7.2-9,10.9-13.2c1.1-1.3,1.3-2.6,1-4.2
			c-2.1-9.3-4.1-18.6-6-27.9c-0.5-2.1-1-4.2-1.6-6.5c-0.7-2.1-1.3-2.4-3.4-1.8c-1.3,0.5-2.6,1-4.1,1.5c-9.9,4.1-20,8.3-30,12.4
			c-30.9,12.9-62.1,25.7-93,38.6c-4.2,1.8-4.4,1.8-3.1,6.4c7.3,23.6,13.7,47.6,18.4,71.8c4.2,21,8,41.9,9.1,63.4
			c0,1,0.2,2.1,0.5,3.1c0.7,1.8,2.6,2.1,3.7,0.7c0.5-0.7,0.8-1.6,1.3-2.4c1.8-3.1,3.3-6.2,5.2-9.1c4.9-7.7,10.9-14.7,17.3-21.2
			c12.1-12.5,25.2-23.8,39.3-33.9c16.5-11.7,33.6-22.3,52.8-29c2.3-0.8,2.6-1.1,2.4-3.7c0-0.7-0.2-1.3-0.2-2c-1-8.1-2-16.3-2.8-24.4
			c-0.2-2.3-1.1-3.6-2.9-4.6c-2.4-1.5-4.9-3.1-7.2-4.7C1133.5,915,1130.4,912.9,1126.9,910.6z"/>
		<path class="st1" d="M154.4,430.9c-0.3-6.4-0.7-12.7-1-19.1c-0.2-5.2,0.2-10.4,1.6-15.5c0.7-2.3,1.6-4.7,2.8-6.8
			c3.7-7,9.8-10.6,17.8-10.8c2.9-0.2,6-0.3,9-0.5c0.3,0,0.7-0.2,1-0.2c13.5-1.6,26.9-4.7,39.9-8.6c13.7-4.1,26.9-8.8,39.6-15.3
			c3.7-2,7.2-4.2,10.6-6.5c0.7-0.3,1.1-1,2-1.6c-0.8-0.3-1.3-0.7-2-0.8c-9.6-2.1-17.4-7.2-24.4-13.8c-10.1-9.6-16.9-21.3-21.8-34.2
			c-5.2-13.7-8-28-8.1-42.7c0-0.5,0-1-0.2-1.6c0-1.3,0-2.8,0-4.1c0.3-4.9,0.5-9.9,1.1-14.8c1-9.3,3.4-18.2,6.8-26.7
			c0.3-1,0.8-2,1.5-2.8c0.5-0.8,1.8-0.8,2.4-0.2c0.3,0.3,0.7,0.8,1,1.1c5,8.6,12.2,15.5,20,21.7c10.3,8.3,21.5,15.3,33.1,21.5
			c22.3,12.1,45.8,21.3,69.9,29c18.6,5.9,37.6,10.6,56.9,13.8c6.7,1.1,13.4,1.8,20,2.6c8.1,1,16.3,2.3,24.3,4.1
			c34.5,7.5,67.6,18.7,99.7,33.6c7.7,3.6,15.1,7.7,22.6,11.6c0.7,0.3,1.1,0.7,1.6,1c1.1,0.8,1.5,1.8,0.8,3.1c-1.1,2.3-2.4,4.6-3.6,7
			c-0.7,1.3-1.1,2.6-2,3.9c1,0.7,1.6,1.1,2.4,1.6c33.2,18.2,63.7,40.6,92.5,65c11.7,9.9,23.1,20.2,34.2,30.9
			c8.1,8,16.3,15.8,24.1,23.9c19.2,19.9,37.5,40.6,55.1,61.9c24.6,30,47.7,61.2,69.2,93.7c22.6,33.9,43.5,68.9,62.6,105.1
			c20.5,38.8,38.8,78.4,54.6,119.2c12.1,31.1,22.5,62.7,30.8,95.1c5,19.7,9.4,39.6,12.5,59.6c1.6,9.9,2.6,19.9,3.9,29.8
			c0.2,1,0.2,1.8,0.2,2.8c0,0.8-0.5,1.5-1.3,1.6c-0.5,0.2-1.3-0.2-1.8-0.5c-0.7-0.5-1-1.1-1.5-1.8c-9.9-13.7-20.7-26.7-32.4-39.1
			c-19.4-20.4-40.9-38.3-64-54.2c-34.4-23.6-71.3-41.9-110.6-55.7c-26.6-9.4-53.8-16.6-81.3-21.8c-12.9-2.4-25.6-4.4-38.6-5.9
			c-12.9-1.5-25.6-2.6-38.4-3.3c-15.1-0.8-30.5-0.8-45.6-0.5c-8.3,0.2-16.6,0.5-24.9,1c-7.7,0.5-15.3,1.1-23,2
			c-9,1-17.8,2.1-26.7,3.3c-12.7,1.8-25.4,4.1-38.1,6.7c-17.3,3.6-34.2,8-51,13c-1.1,0.3-2.4,0.5-3.6,0.8c-1.6-1.1-1.5-2.3-0.8-3.6
			c2.4-5,4.9-10.1,7.2-15.1c6.4-15,10.6-30.8,14-46.8c2.4-11.6,4.1-23.3,5.4-35.2c1.3-12.7,2.1-25.4,2-38.3c0-4.6,0-9.1,0-13.7
			c0-0.2,0.2-0.2,0.2-0.3s-0.2-0.3-0.3-0.7c-0.3-6.7-0.5-13.5-1-20.2c-1.1-13.7-2.9-27.4-5.7-40.9c-2-9.8-4.4-19.2-7.5-28.7
			c-0.7-1.8-1.3-3.7-2-5.5c-0.8-2.3-0.5-2.8,1.5-4.2c3.6-2.3,7.3-4.6,10.8-7c21.8-16.3,35.5-38,41.4-64.7c2.4-10.9,2.8-22,2.1-33.1
			c-0.5-6.2-1.5-12.4-2.9-18.4c-1-3.7-2.1-7-3.6-11.1c0.8,3.7,1.1,6.8,2,10.4c0.3,2.4,1.1,5.4,1.3,7.8c1.8,15.5,0.7,30.6-4.1,45.6
			c-6.2,19.2-17.4,34.7-33.1,47.2c-13,10.4-27.9,17.8-43.8,22.6c-9.9,3.1-20.2,5.2-30.5,6.5c-13.7,1.8-27.5,2-41.4,1.1
			c-7.5-0.5-15-1.3-22.5-2.4c-5.4-0.8-10.9-0.7-16.3-0.2c-24.1,2.6-46.3,10.6-67.1,23c-7.7,4.6-14.8,9.8-21,16.1
			c-3.3,3.4-6.2,7-8.3,11.2c-6.8,14.2-17.8,24.3-31.3,31.8c-13.2,7.2-27.4,10.8-42.4,10.6c-11.7-0.2-23-2.9-33.1-9.3
			c-5.4-3.4-9.9-7.5-13.7-12.7c-0.5-0.7-0.8-1.6-1.1-2.3c0.8-1.3,2.1-1.5,3.3-1.8c4.4-1.5,8.3-3.7,11.7-6.8c0.8-0.7,1.3-1.5,2-2.4
			c0.2-0.2,0-0.8-0.3-1c-0.2-0.2-0.8-0.5-1-0.3c-0.7,0.3-1.1,0.7-1.6,1.1c-5.7,5.4-12.5,7.8-20,8.5c-2.9,0.3-5.7-0.5-8.5-1.3
			c-9.6-2.9-17.4-8.1-23.1-16.5c-2.6-3.7-4.4-8-4.4-12.7c0-1.8-1-2.9-1.8-4.2c-5-7.2-8.6-15.1-10.8-23.8
			c-3.3-13.8-2.1-27.4,2.8-40.7c3.9-10.6,9.9-19.7,17.4-28c5.7-6.2,12.1-11.6,18.9-16.1c18.4-12.5,33.9-28,46.9-45.9
			c10.3-14.2,18.6-29.5,24.6-46.1c3.6-10.1,6-20.5,7.2-31.1c0.3-3.9,0.3-7.8,0.5-11.7c0-0.2,0.3-0.2,0.2-0.3
			C154.5,431.2,154.4,431.1,154.4,430.9z M181.4,459.7c0.8,0,1.1,0.2,1.3,0c1-0.3,2-0.8,2.9-1.3c11.7-5.7,22.2-13,32.1-21.3
			c8-6.7,15.5-14,21.7-22.3c2.4-3.3,4.7-6.5,6.2-10.3c0.3-0.7,0.3-1.5,0.5-2.1c-0.7-0.2-1-0.3-1.3-0.5c-8.8-1.8-17.6-2-26.4-1.5
			c-2.8,0.2-5.4,0.8-8.1,1.3c-3.7,0.7-6,2.8-7.5,6.4c-5,12.5-10.3,24.9-15.5,37.5C185.3,450.3,183.5,454.8,181.4,459.7z"/>
		<path class="st1" d="M498.1,182.5c3.4-6.4,6.7-12.7,10.1-19.1c0-0.2,0.2-0.2,0.2-0.3c1.6-2.9,1.8-3.1,5.2-2.6
			c2.1,0.3,4.1,0.7,6.2,1c21.3,3.9,42.4,9.3,63,16.3c15.8,5.2,31.3,11.4,46.3,18.6c4.7,2.3,4.9,1.8,3.1,7.3
			c-1.8,5.5-3.7,11.1-5.5,16.6c-0.2,0.7-0.3,1.5-0.7,2.8c1-0.7,1.5-1,2-1.3c5-4.4,10.1-8.6,15.1-13c0.7-0.7,1.3-1.1,2.1-1.8
			c1-0.8,2.1-1,3.3-0.3c1.6,1,3.1,2,4.6,2.9c2.3,1.5,4.6,3.1,6.7,4.7c1.1,0.8,1.3,1.8,0.7,3.1c-0.5,1-1.1,2.1-1.8,3.1
			c-19.2,31.1-38.3,62.4-57.5,93.5c-3.4,5.7-7,11.2-10.4,16.9c-0.7,1-1,2.1-2.3,2.6c-1.3,0.2-2.4-0.8-3.6-1.3
			c-16.1-8.1-32.6-15.6-49.5-22.3c-14.5-5.9-29.2-11.1-44.3-15.3c-5.9-1.6-4.7-1.6-5.4-6.4c-2.3-14.5-4.4-29.2-6.7-43.7
			c-2.1-14.3-4.4-28.8-6.7-43.2c-1.6-11.1-3.3-22.2-5-33.2c-0.3-2.4-0.8-4.9-1.1-7.3c-0.3-2.1,0.3-2.8,2.4-3.1
			c6.7-0.8,13.2-0.7,19.9-0.2c1.6,0.2,3.1,0.2,4.7,0.3c1.5,0.2,2.1,0.8,2.3,2.3c0.2,0.8,0,1.6,0.2,2.3c0.3,6.5,0.7,13,1,19.5
			c0,0.2-0.2,0.5-0.2,0.7c0.2,0.8,0.7,1.1,1.1,0.7C497.9,183.1,497.9,182.8,498.1,182.5z"/>
		<path class="st1" d="M417.5,172.9c5-5.4,9.6-10.4,14.2-15.5c7.3,0.2,14.3,0.3,21.2,1.3c2.8,0.3,3.3,0.8,3.6,3.6
			c1.6,12.1,3.3,23.9,4.9,36c2,14,3.9,28,5.9,42.2c1.6,12.2,3.3,24.4,5,36.8c0.3,2.6,0.8,5.2,1.1,7.7c0.2,0.7,0.2,1.3,0.2,2
			c0,1.3-0.8,2.1-2.3,2c-0.7-0.2-1.3-0.3-2-0.5c-12.7-3.7-25.6-6.2-38.6-7.7c-3.9-0.5-7.8-0.7-11.6-1.1c-8.8-1-17.4-2.9-26.1-4.7
			c-26.9-6-52.8-14.7-78-26.1c-15.3-6.8-30.1-14.8-44.1-24.3c-8-5.4-15.6-11.4-22.2-18.4c-1.5-1.6-2.9-3.3-4.4-5
			c-0.5-0.7-1-1.3-1.3-2c-1-1.6-0.5-3.1,1.1-3.9c0.8-0.5,1.6-0.8,2.4-1.1c11.7-5.2,23.9-9.4,36.3-13.4c19.9-6.2,40.1-10.9,60.6-14.7
			c10.9-2,21.8-3.6,32.7-5c7.7-1,15.3-1.6,23-2.4c0.7,0,1.3,0,2-0.2c1.5-0.2,2.8,0.3,3.7,1.5c2.6,2.8,5.2,5.5,7.8,8.1
			C414.4,169.8,415.7,171.1,417.5,172.9z"/>
		<path class="st1" d="M590.8,351.9c1.1-2,2-3.6,2.9-5c17.9-28.2,35.8-56.2,53.8-84.4c7.7-12.1,15.1-24.3,22.6-36.5
			c2.4-4.1,2.9-4.2,7-1.6c10.6,6.8,21.2,13.8,31.8,20.7c1.8,1.1,2.4,2.4,2.6,4.4c1,8.8,2.1,17.6,3.3,26.4c0,0.3,0.3,0.7,0.3,1.1
			c1.5,0.7,2.8,0,4.2-0.3c6.4-1.3,12.7-2.8,19.1-4.1c1.3-0.3,2.6-0.5,3.7-0.8c1.6-0.5,2.9,0,4.2,1c4.1,3.3,8.1,6.5,12.2,9.8
			c5.4,4.6,10.8,9.1,16.1,13.5c0.8,0.8,1.8,1.6,2.6,2.4c1,1,1,2.4,0.2,3.6c-0.5,0.7-1,1.1-1.5,1.8c-17.6,19.7-35.2,39.4-52.6,59.3
			c-14,15.8-28,31.4-42,47.2c-4.6,5-4.6,3.7-8.3,0.8c-24.3-19.1-49.4-37-75.1-54.1c-1.5-1-3.1-2-4.6-2.9
			C592.6,353.5,591.8,352.9,590.8,351.9z"/>
		<path class="st1" d="M770.1,508.4c0.8-1.6,2.4-2.9,3.9-4.2c13.2-12.1,26.4-23.9,39.6-36c19.1-17.3,38.1-34.7,57.2-52
			c3.3-2.9,6.4-5.9,9.4-8.8c0.3-0.3,0.7-0.8,1.1-1.1c1.5-1.1,2.4-1.1,3.7,0.2c1.5,1.3,2.8,2.8,4.1,4.2
			c11.2,12.4,22.5,24.9,33.2,37.8c12.4,14.8,24.1,30.1,35,45.9c0.3,0.5,0.7,1.1,1.1,1.6c1.6,2.6,1.5,3.3-1,5.2
			c-6.4,4.7-12.7,9.6-19.1,14.3c-32.1,24.1-64.3,48.4-96.4,72.5c-0.7,0.5-1.5,1.1-2.3,1.6c-3.1,2.1-3.4,2.1-5.7-0.8
			c-2-2.8-4.1-5.4-6-8.1c-17.8-23.8-36.5-46.8-56-69.2c-0.7-0.8-1.3-1.6-2-2.4C770.1,509.1,770.1,508.8,770.1,508.4z"/>
		<path class="st1" d="M841.3,386.6c3.6-1,7.2-2.1,10.9-3.1c2.8-0.8,5.4-1.8,8.1-2.6c1.6-0.5,2.9-0.2,4.2,1.1
			c2.8,3.4,5.9,6.7,8.6,10.1c2,2.3,2,3.1-0.5,5.2c-5.4,5-10.8,9.9-16,14.8c-10.1,9.3-20,18.6-30.1,27.9
			c-14.8,13.7-29.6,27.4-44.5,41c-5.7,5.2-11.2,10.4-16.9,15.6c-3.4,3.1-3.7,3.1-6.8-0.3c-14.5-16-29.5-31.6-45-46.8
			c-7.5-7.3-15.1-14.7-22.8-22c-0.8-0.8-1.8-1.6-2.4-2.4c-1.5-1.6-1.6-2.3-0.2-4.1c2.3-2.6,4.6-5.2,7-7.8
			c19.9-22,39.7-44.1,59.6-66.1c10.1-11.2,20-22.6,30.1-33.9c1-1.1,2-2.1,2.9-3.1c1-1,2-1,3.1-0.2c0.8,0.5,1.5,1.1,2.1,1.8
			c11.1,10.1,22.2,20,33.1,30.3c7.3,7,14.3,14.3,21.5,21.5c0.8,0.8,1.8,1.6,2,3.3c-1.3,2.9-2.8,6-4.2,9.3c-1.3,2.8-2.6,5.4-3.7,8.1
			c-0.3,0.7-0.3,1.3-0.5,1.8c-0.2,0.2-0.3,0.3-0.3,0.5C840.8,386.6,841.1,386.6,841.3,386.6z"/>
		<path class="st1" d="M901.4,690.2c-2-0.7-2.3-2.1-3.1-3.3c-4.7-7.7-9.3-15.5-14-23c-12.4-19.9-25.2-39.4-38.8-58.6
			c-0.7-0.8-1.3-1.6-1.8-2.6c-1-1.5-0.8-2.3,0.5-3.4c0.8-0.7,1.6-1.3,2.4-2c25.2-18.6,50.7-37.1,75.9-55.7
			c13-9.6,25.9-19.2,38.9-28.8c0.7-0.5,1.5-1.1,2.3-1.6c2.6-1.8,3.1-1.8,5,0.8c6.2,8.3,12.2,16.6,18.2,24.8c1.1,1.6,1.1,2.9,0.2,4.6
			c-3.6,5.7-7,11.6-10.4,17.4c-0.5,0.8-1,1.8-1.5,2.9c3.4,0.7,6.5-0.3,9.4-0.3c2.9-0.2,6-0.5,9-0.7c3.1-0.2,6.2-0.3,9.4-0.5
			c0.7,0.8,1.1,1.5,1.6,2.3c9.1,13.8,17.6,27.9,25.7,42.4c0.7,1.3,1.5,2.4,2,3.7c0.7,1.5,0.3,2.4-1,3.4c-1,0.8-2.1,1.5-3.3,2.1
			c-37.3,22.5-74.8,45-112.1,67.4c-3.7,2.3-7.3,4.4-11.1,6.7C903.7,689.2,902.4,689.7,901.4,690.2z"/>
		<path class="st1" d="M1031.9,655.4c7.5,0.3,14.5,0.5,21.5,0.7c0.7,0,1.3,0,2,0c1,0,1.8,0.5,2.3,1.3c0.3,0.7,0.8,1.3,1.1,2.1
			c3.7,7.8,7.5,15.8,11.4,23.6c0.8,1.6,0.7,2.9-0.5,4.2c-4.1,4.4-8.1,8.8-12.1,13.4c-0.2,0.2-0.2,0.3-0.2,0.7c0,0.2,0.2,0.3,0.2,0.3
			c3.4,0.2,6.8,0.2,10.1,0.3c3.1,0.2,6.2,0.3,9.3,0.3c1.1,0,2,0.5,2.4,1.6c2.4,5.5,4.7,10.9,7.2,16.5c0.7,1.6,0.3,2.4-1,3.4
			c-1.1,0.7-2.3,1.3-3.4,2c-24.9,13.7-49.8,27.2-74.6,40.9c-16.6,9.1-33.1,18.1-49.7,27.2c-0.5,0.3-1,0.5-1.5,0.7
			c-1.1,0.5-2.1,0.2-2.8-0.8c-0.5-1-1-2-1.3-2.8c-6.2-12.9-12.2-25.6-18.4-38.3c-8-16-16.3-31.8-25.1-47.2c-0.7-1-1.1-2.1-1.6-3.1
			c-1.3-2.6-1.1-3.1,1.3-4.7c0.5-0.3,1.1-0.7,1.6-1c23.5-13.8,46.9-27.7,70.4-41.5c17.4-10.3,35-20.7,52.5-30.9
			c1.1-0.7,2.3-1.3,3.4-2c1.3-0.7,2.3-0.3,3.1,0.8c0.3,0.5,0.7,1.1,1,1.6c1.3,2.3,2.3,4.7,3.7,6.8c1.3,2.1,1,3.7-0.3,5.7
			c-2.6,3.9-5.2,7.8-7.8,11.7C1034.8,650.8,1033.5,652.8,1031.9,655.4z"/>
		<path class="st1" d="M1128.8,842.8c0,1.3-0.3,2.1-1.3,2.6c-1,0.5-2.1,1-3.3,1.5c-37.1,15.3-74.3,30.6-111.4,46.1
			c-4.4,1.8-9,3.7-13.4,5.5c-0.8,0.3-1.6,0.7-2.6,1c-1.3,0.3-2.3-0.2-2.8-1.5c-0.7-1.6-1.1-3.4-1.8-5.2c-9.4-28.8-20.5-57-32.3-85
			c-0.3-0.8-0.8-1.6-1-2.6c-0.5-1.6-0.2-2.4,1.3-3.3c1.5-0.8,2.9-1.6,4.4-2.4c25.1-13,50-26.2,75.1-39.3c15.3-8,30.6-16.1,45.9-24.1
			c1-0.5,1.8-1,2.8-1.5c2-0.8,3.1-0.5,4.1,1.6c0.3,0.7,0.5,1.1,0.7,1.8c5.4,14.8,10.9,29.6,16.1,44.5c6.5,18.7,12.5,37.5,18.2,56.5
			C1128.2,840.4,1128.5,841.9,1128.8,842.8z"/>
		<path class="st1" d="M1126.9,910.6c3.4,2.3,6.7,4.4,9.8,6.4c2.4,1.6,4.7,3.3,7.2,4.7c1.8,1.1,2.8,2.4,2.9,4.6
			c0.8,8.1,1.8,16.3,2.8,24.4c0,0.7,0.2,1.3,0.2,2c0.2,2.6-0.2,2.9-2.4,3.7c-19.2,6.7-36.3,17.3-52.8,29
			c-14.2,10.1-27.2,21.3-39.3,33.9c-6.4,6.5-12.2,13.5-17.3,21.2c-2,2.9-3.4,6-5.2,9.1c-0.5,0.8-0.8,1.6-1.3,2.4
			c-1.1,1.5-3.1,1.1-3.7-0.7c-0.3-1-0.5-2-0.5-3.1c-1.1-21.3-5-42.4-9.1-63.4c-4.9-24.3-11.2-48.2-18.4-71.8
			c-1.3-4.4-1.3-4.6,3.1-6.4c30.9-12.9,62.1-25.7,93-38.6c9.9-4.1,19.9-8.3,30-12.4c1.3-0.5,2.6-1.1,4.1-1.5
			c2.1-0.7,2.8-0.3,3.4,1.8s1.1,4.2,1.6,6.5c2.1,9.3,4.1,18.6,6,27.9c0.3,1.6,0.2,2.9-1,4.2c-3.7,4.4-7.3,8.8-10.9,13.2
			C1128.3,908.8,1127.8,909.5,1126.9,910.6z"/>
		<path class="st2" d="M221,248.6c0,1.3,0,2.8,0,4.1C220.4,251.4,220.4,250.1,221,248.6z"/>
		<path class="st3" d="M498.1,182.5c-0.2,0.3-0.2,0.8-0.5,1c-0.5,0.5-1.1,0.3-1.1-0.7c0-0.2,0.2-0.5,0.2-0.7
			C497.1,182.2,497.6,182.3,498.1,182.5z"/>
		<path class="st4" d="M185.5,377.9c-0.3,0-0.7,0.2-1,0.2C184.8,378.1,185.2,378.1,185.5,377.9z"/>
		<path class="st5" d="M154.4,430.9c0.2,0.2,0.2,0.3,0.3,0.7c0,0-0.2,0.2-0.2,0.3C154.4,431.4,154.4,431.2,154.4,430.9z"/>
		<path class="st6" d="M463.7,738.9c0.2,0.2,0.3,0.3,0.3,0.7c0,0-0.2,0.2-0.2,0.3C463.9,739.6,463.9,739.2,463.7,738.9z"/>
		<path class="st0" d="M181.4,459.7c2-4.9,3.9-9.4,5.7-14c5.2-12.5,10.6-24.9,15.5-37.5c1.5-3.7,3.7-5.7,7.5-6.4
			c2.6-0.5,5.4-1.1,8.1-1.3c8.8-0.5,17.8-0.3,26.4,1.5c0.3,0,0.8,0.2,1.3,0.5c-0.2,0.7-0.2,1.5-0.5,2.1c-1.6,3.7-3.9,7.2-6.2,10.3
			c-6.4,8.3-13.7,15.6-21.7,22.3c-9.9,8.3-20.4,15.8-32.1,21.3c-1,0.5-2,0.8-2.9,1.3C182.6,459.9,182.2,459.9,181.4,459.7z"/>
		<path class="st1" d="M841.3,386.6c-0.3,0-0.5,0-0.8,0c0.2-0.2,0.3-0.3,0.3-0.5C841.1,386.4,841.3,386.4,841.3,386.6z"/>
	</g>
</g>
<g id="Layer_2">
</g>
</svg>
